<svg width="334" height="350" viewBox="0 0 334 350" fill="none" xmlns="http://www.w3.org/2000/svg">
<path d="M286.05 323.476C222.208 358.842 118.702 358.842 54.8604 323.476C-8.98162 288.109 -8.98162 230.775 54.8604 195.409C118.702 160.043 222.208 160.051 286.05 195.409C349.892 230.767 349.892 288.109 286.05 323.476Z" fill="#F5F5F5"/>
<path d="M139.543 276.054L193.336 306.891C193.895 307.175 194.513 307.324 195.14 307.324C195.766 307.324 196.385 307.175 196.943 306.891L308.128 242.691C308.346 242.617 308.534 242.478 308.668 242.291C308.801 242.105 308.873 241.881 308.873 241.652C308.873 241.423 308.801 241.199 308.668 241.013C308.534 240.827 308.346 240.687 308.128 240.613L250.819 207.682C250.264 207.402 249.649 207.26 249.026 207.268C248.404 207.277 247.793 207.436 247.245 207.732L139.509 273.935C139.294 274.018 139.11 274.166 138.981 274.357C138.852 274.549 138.785 274.775 138.789 275.006C138.792 275.237 138.867 275.461 139.001 275.648C139.136 275.836 139.325 275.977 139.543 276.054Z" fill="#E0E0E0"/>
<path d="M85.3015 291.281L28.1255 258.283C27.9093 258.207 27.7221 258.066 27.5896 257.879C27.4571 257.693 27.386 257.469 27.386 257.24C27.386 257.011 27.4571 256.788 27.5896 256.601C27.7221 256.414 27.9093 256.273 28.1255 256.197L85.127 223.075C85.6847 222.792 86.3012 222.645 86.9264 222.645C87.5517 222.645 88.1682 222.792 88.7259 223.075L146.076 256.205C146.294 256.279 146.482 256.419 146.616 256.605C146.749 256.791 146.821 257.015 146.821 257.244C146.821 257.473 146.749 257.697 146.616 257.883C146.482 258.07 146.294 258.21 146.076 258.283L88.9004 291.281C88.3427 291.563 87.7262 291.71 87.101 291.71C86.4757 291.71 85.8592 291.563 85.3015 291.281Z" fill="#E0E0E0"/>
<path d="M236.961 319.336C253.161 319.336 266.293 311.517 266.293 301.873C266.293 292.229 253.161 284.41 236.961 284.41C220.762 284.41 207.629 292.229 207.629 301.873C207.629 311.517 220.762 319.336 236.961 319.336Z" fill="#E0E0E0"/>
<path d="M278.504 299.263C294.547 299.263 307.553 291.519 307.553 281.967C307.553 272.414 294.547 264.67 278.504 264.67C262.46 264.67 249.455 272.414 249.455 281.967C249.455 291.519 262.46 299.263 278.504 299.263Z" fill="#E0E0E0"/>
<path d="M32.0967 235.521C32.0136 230.534 28.2151 220.202 22.904 213.794C17.5928 207.386 9.33934 202.773 3.57104 204.842C-1.79831 206.787 -1.09182 213.86 5.54921 218.448C12.1902 223.036 22.1726 228.763 25.1731 236.834L31.3985 246.692L32.0967 235.521Z" fill="#FA6218"/>
<path opacity="0.1" d="M32.0967 235.521C32.0136 230.534 28.2151 220.202 22.904 213.794C17.5928 207.386 9.33934 202.773 3.57104 204.842C-1.79831 206.787 -1.09182 213.86 5.54921 218.448C12.1902 223.036 22.1726 228.763 25.1731 236.834L31.3985 246.692L32.0967 235.521Z" fill="black"/>
<path d="M32.5856 242.36C32.5072 242.355 32.4325 242.325 32.3726 242.274C32.3128 242.223 32.2709 242.154 32.2532 242.078C28.6043 225.039 14.5327 211.391 6.20437 208.465C6.11294 208.433 6.03796 208.366 5.99589 208.279C5.95381 208.192 5.94808 208.091 5.97995 208C5.99485 207.954 6.0189 207.912 6.05066 207.875C6.08241 207.839 6.12121 207.809 6.16471 207.788C6.20821 207.767 6.25551 207.755 6.30376 207.753C6.352 207.751 6.40019 207.759 6.44541 207.776C14.9316 210.751 29.261 224.632 32.968 241.92C32.9877 242.015 32.969 242.113 32.916 242.194C32.863 242.275 32.7801 242.332 32.6854 242.352L32.5856 242.36Z" fill="white"/>
<path d="M30.2689 253.349C29.4378 250.548 25.897 245.96 20.2949 242.22C14.0695 238.064 6.24817 236.268 4.39466 233.002C2.17544 229.07 5.45025 225.264 11.7837 225.937C18.1172 226.61 29.3713 235.03 31.3744 247.98L30.2689 253.349Z" fill="#FA6218"/>
<path d="M31.4009 250.37C31.3306 250.365 31.2634 250.339 31.2074 250.296C31.1513 250.253 31.1089 250.195 31.085 250.129C25.591 235.592 14.3287 230.605 9.1422 230.056C9.09405 230.051 9.04741 230.036 9.00497 230.013C8.96254 229.99 8.92516 229.958 8.895 229.92C8.86484 229.882 8.84252 229.839 8.8293 229.792C8.81609 229.746 8.81226 229.697 8.81804 229.649C8.82313 229.601 8.83783 229.555 8.86127 229.513C8.8847 229.471 8.91638 229.434 8.95442 229.404C8.99245 229.375 9.03605 229.353 9.0826 229.341C9.12915 229.329 9.17769 229.326 9.22532 229.333C14.9604 229.973 26.1562 235.018 31.7666 249.871C31.7852 249.916 31.7946 249.964 31.7942 250.012C31.7938 250.061 31.7836 250.108 31.7641 250.153C31.7447 250.197 31.7165 250.237 31.6812 250.27C31.6459 250.303 31.6043 250.329 31.5588 250.345C31.5079 250.362 31.4545 250.371 31.4009 250.37Z" fill="white"/>
<path d="M302.891 218.97C302.891 218.97 302.309 210.359 305.301 203.036C308.294 195.713 313.322 190.569 318.6 189.164C323.878 187.759 329.156 191.907 324.019 196.362C318.883 200.817 309.291 206.161 306.914 219.743L302.891 218.97Z" fill="#FA6218"/>
<path opacity="0.15" d="M302.891 218.97C302.891 218.97 302.309 210.359 305.301 203.036C308.294 195.713 313.322 190.569 318.6 189.164C323.878 187.759 329.156 191.907 324.019 196.362C318.883 200.817 309.291 206.161 306.914 219.743L302.891 218.97Z" fill="black"/>
<path d="M304.095 216.476H304.037C303.962 216.46 303.896 216.416 303.853 216.352C303.809 216.289 303.792 216.211 303.804 216.135C306.921 201.108 316.662 193.287 321.384 191.25C321.454 191.22 321.534 191.218 321.606 191.246C321.677 191.274 321.735 191.329 321.766 191.4C321.797 191.47 321.798 191.55 321.77 191.622C321.742 191.694 321.687 191.751 321.616 191.782C316.995 193.777 307.486 201.457 304.378 216.252C304.363 216.316 304.327 216.372 304.276 216.413C304.224 216.454 304.161 216.476 304.095 216.476Z" fill="white"/>
<path d="M329.896 211.667C329.588 212.93 328.424 213.77 327.327 214.468C326.23 215.166 325.042 215.914 324.601 217.136C323.72 219.63 326.413 222.347 325.432 224.774C325.188 225.267 324.846 225.706 324.427 226.063C324.009 226.42 323.522 226.688 322.997 226.852C322.132 227.142 321.252 227.386 320.362 227.584C319.933 227.656 319.5 227.7 319.066 227.717C317.776 227.67 316.506 228.047 315.45 228.789C313.854 230.111 313.721 232.446 312.956 234.374C312.477 235.514 311.756 236.537 310.843 237.372C309.931 238.207 308.848 238.835 307.67 239.212C306.889 239.461 305.434 239.877 304.545 239.578L304.354 239.503C304.221 239.403 304.055 239.262 303.971 239.187V239.145C303.448 238.04 303.739 236.743 303.539 235.546C303.544 235.474 303.544 235.402 303.539 235.33C303.232 233.951 302.941 232.579 302.65 231.174C302.118 228.639 301.628 226.088 301.17 223.536C300.888 221.874 300.339 220.095 300.772 218.408C301.229 216.546 303.157 216.155 303.573 214.335C303.747 213.612 303.772 212.864 303.93 212.132C304.186 211.058 304.732 210.074 305.509 209.288C306.286 208.503 307.263 207.945 308.335 207.677C311.66 206.888 315.201 209.065 318.517 208.201C319.348 207.968 320.179 207.553 321.01 207.237C323.645 206.223 326.945 206.406 328.898 208.45C329.315 208.864 329.625 209.373 329.798 209.934C329.972 210.495 330.006 211.09 329.896 211.667Z" fill="#FA6218"/>
<g opacity="0.07">
<path d="M329.896 211.667C329.588 212.93 328.424 213.77 327.327 214.468C326.23 215.166 325.042 215.914 324.601 217.136C323.72 219.63 326.413 222.347 325.432 224.774C325.188 225.267 324.846 225.706 324.427 226.063C324.009 226.42 323.522 226.688 322.997 226.852C322.145 227.183 321.262 227.428 320.362 227.584C319.933 227.656 319.5 227.7 319.066 227.717C317.776 227.67 316.506 228.047 315.45 228.789C313.854 230.111 313.721 232.446 312.956 234.374C312.477 235.514 311.756 236.537 310.843 237.372C309.931 238.207 308.848 238.835 307.67 239.212C306.889 239.461 305.434 239.877 304.545 239.578L304.354 239.503C304.301 239.48 304.251 239.452 304.204 239.42C304.115 239.355 304.036 239.276 303.971 239.187V239.145C303.348 238.273 303.681 236.594 303.539 235.546C303.544 235.474 303.544 235.402 303.539 235.33C303.232 233.951 302.941 232.579 302.65 231.174C302.118 228.639 301.628 226.088 301.17 223.536C300.888 221.874 300.339 220.095 300.772 218.408C301.229 216.546 303.157 216.155 303.573 214.335C303.747 213.612 303.772 212.864 303.93 212.132C304.186 211.058 304.732 210.074 305.509 209.288C306.286 208.503 307.263 207.945 308.335 207.677C311.66 206.888 315.201 209.065 318.517 208.201C319.348 207.968 320.179 207.553 321.01 207.237C323.645 206.223 326.945 206.406 328.898 208.45C329.315 208.864 329.625 209.373 329.798 209.934C329.972 210.495 330.006 211.09 329.896 211.667Z" fill="#263238"/>
</g>
<path d="M302.666 233.867C302.59 233.858 302.519 233.821 302.47 233.762C302.42 233.703 302.395 233.628 302.4 233.551C303.855 215.224 321.8 209.331 326.163 208.849C326.24 208.842 326.317 208.864 326.377 208.912C326.437 208.96 326.477 209.03 326.487 209.106C326.492 209.145 326.489 209.183 326.478 209.22C326.468 209.258 326.45 209.292 326.426 209.322C326.402 209.352 326.373 209.378 326.339 209.396C326.305 209.415 326.268 209.426 326.23 209.43C321.957 209.896 304.403 215.673 302.957 233.601C302.951 233.674 302.917 233.741 302.863 233.791C302.81 233.84 302.739 233.867 302.666 233.867Z" fill="white"/>
<path d="M321.501 221.264C321.442 221.264 321.384 221.247 321.335 221.214C319.365 220.052 317.163 219.339 314.886 219.125C312.609 218.911 310.313 219.201 308.161 219.976C308.125 219.991 308.085 219.998 308.046 219.998C308.006 219.997 307.967 219.988 307.931 219.972C307.895 219.956 307.863 219.933 307.836 219.903C307.809 219.874 307.789 219.84 307.776 219.803C307.763 219.765 307.757 219.726 307.76 219.686C307.763 219.647 307.774 219.608 307.792 219.573C307.81 219.538 307.835 219.507 307.866 219.482C307.897 219.457 307.932 219.438 307.97 219.427C310.208 218.621 312.597 218.32 314.965 218.545C317.333 218.771 319.622 219.518 321.668 220.732C321.7 220.754 321.727 220.782 321.748 220.814C321.769 220.847 321.783 220.883 321.789 220.921C321.795 220.96 321.794 220.999 321.784 221.036C321.775 221.074 321.758 221.109 321.734 221.139C321.709 221.179 321.675 221.211 321.634 221.233C321.593 221.255 321.548 221.265 321.501 221.264Z" fill="white"/>
<path d="M149.401 130.267C150.09 129.421 150.424 128.34 150.333 127.253C150.242 126.165 149.733 125.155 148.912 124.436C148.091 123.716 147.023 123.343 145.933 123.395C144.843 123.447 143.816 123.92 143.067 124.715C143.067 124.291 143.134 123.884 143.134 123.418C143.132 121.179 142.545 118.98 141.429 117.039C140.314 115.098 138.71 113.483 136.776 112.355C134.843 111.227 132.647 110.625 130.409 110.609C128.17 110.593 125.966 111.163 124.017 112.264C124.318 111.56 124.473 110.802 124.474 110.036C124.475 109.046 124.213 108.073 123.715 107.217C123.217 106.361 122.501 105.653 121.64 105.164C120.779 104.676 119.803 104.425 118.813 104.437C117.823 104.449 116.854 104.723 116.004 105.232C116.1 104.577 116.15 103.916 116.154 103.254C116.169 99.99 115.083 96.8162 113.071 94.246C111.059 91.6757 108.239 89.8592 105.067 89.0902C101.895 88.3212 98.5564 88.6446 95.5909 90.0083C92.6253 91.3719 90.2065 93.696 88.7254 96.6046C88.3383 95.6953 87.6944 94.9187 86.8724 94.37C86.0505 93.8213 85.0863 93.5243 84.0981 93.5155C83.1099 93.5067 82.1406 93.7864 81.309 94.3203C80.4774 94.8543 79.8196 95.6193 79.4164 96.5215C78.1119 94.4209 76.1586 92.8024 73.8522 91.9109C71.5458 91.0194 69.0118 90.9035 66.6336 91.5807C64.2555 92.2579 62.1626 93.6913 60.6718 95.6641C59.181 97.6368 58.3734 100.042 58.3712 102.514C58.3759 103.085 58.4232 103.654 58.5125 104.218C57.8948 103.713 57.1462 103.393 56.354 103.297C55.5618 103.2 54.7585 103.331 54.0375 103.673C53.3165 104.015 52.7076 104.555 52.2814 105.23C51.8553 105.905 51.6296 106.687 51.6304 107.485C51.6304 107.485 51.6304 107.485 51.6304 107.534C50.0973 106.638 48.3528 106.168 46.5769 106.171C44.1336 106.174 41.7736 107.06 39.9316 108.665C38.0897 110.27 36.8898 112.487 36.5531 114.907C35.4176 114.478 34.1826 114.387 32.9965 114.644C31.8103 114.9 30.7235 115.494 29.8667 116.353C29.0098 117.213 28.4195 118.301 28.1665 119.488C27.9136 120.675 28.0089 121.91 28.4409 123.044C25.2544 124.313 22.6098 126.653 20.9617 129.661C19.3136 132.669 18.7651 136.157 19.4105 139.526C20.0559 142.895 21.8549 145.933 24.4981 148.119C27.1412 150.305 30.4634 151.502 33.8933 151.503L86.8802 187.202L143.558 150.714C145.957 150.708 148.29 149.922 150.204 148.474C152.117 147.025 153.507 144.994 154.164 142.686C154.821 140.378 154.71 137.918 153.846 135.68C152.982 133.441 151.413 131.544 149.376 130.275L149.401 130.267ZM141.97 128.721C141.982 128.692 141.996 128.665 142.012 128.638C142.015 128.663 142.015 128.688 142.012 128.713L141.97 128.721Z" fill="#F5F5F5"/>
<path d="M46.586 106.167C44.1427 106.17 41.7827 107.055 39.9407 108.661C38.0987 110.266 36.8988 112.483 36.5621 114.903C35.4267 114.474 34.1917 114.383 33.0055 114.639C31.8193 114.896 30.7325 115.49 29.8757 116.349C29.0189 117.208 28.4285 118.297 28.1756 119.484C27.9227 120.671 28.0179 121.906 28.4499 123.04C25.2635 124.309 22.6188 126.649 20.9707 129.657C19.3227 132.665 18.7742 136.153 19.4196 139.522C20.065 142.891 21.8639 145.929 24.5071 148.115C27.1503 150.301 30.4725 151.497 33.9024 151.499L86.8894 187.198L139.685 153.211L141.04 148.133C133.85 157.467 124.242 150.036 124.242 150.036C124.242 150.036 123.511 154.799 119.488 155.09C118.373 155.197 117.252 154.965 116.271 154.424C115.29 153.882 114.497 153.057 113.994 152.056C113.471 154.183 112.326 156.106 110.705 157.58C109.084 159.053 107.06 160.009 104.892 160.326C97.0462 161.781 92.4665 153.17 92.4665 153.17C92.4665 153.17 90.9953 157.051 86.8894 156.012C82.7834 154.973 84.2379 152.688 84.2379 152.688C84.2379 152.688 81.9023 154.741 77.8878 152.596C73.8733 150.452 73.599 144.168 73.599 144.168C71.4783 145.007 69.1612 145.217 66.924 144.775C64.6869 144.333 62.6241 143.257 60.9818 141.675C55.1637 136.147 60.0925 128.55 60.0925 128.55C51.3486 130.263 51.6728 123.09 51.6728 123.09C39.4546 121.419 40.3356 109.434 46.586 106.167Z" fill="#F0F0F0"/>
<path d="M100.526 171.521L98.6721 281.75L110.2 275.093L113.991 163.749L100.526 171.521Z" fill="#FAFAFA"/>
<path d="M113.99 163.749L110.2 275.092L121.687 268.468L127.489 155.953L113.99 163.749Z" fill="#FA6218"/>
<path d="M90.6937 177.196C89.5845 177.775 88.3456 178.061 87.0947 178.027V287.217C88.3456 287.252 89.5845 286.966 90.6937 286.386L98.6729 281.782L100.526 171.552L90.6937 177.196Z" fill="#FA6218"/>
<path d="M133.116 261.867L140.895 257.37C141.959 256.674 142.862 255.759 143.546 254.687C144.229 253.616 144.677 252.411 144.86 251.153L154.618 140.292L141.037 148.13L133.116 261.867Z" fill="#FA6218"/>
<path d="M127.491 155.949L121.689 268.465L133.118 261.865L141.039 148.128L127.491 155.949Z" fill="#FAFAFA"/>
<path d="M73.6696 171.521L75.5231 281.75L63.9948 275.093L60.2047 163.749L73.6696 171.521Z" fill="#FA6218"/>
<path d="M60.2041 163.749L63.9942 275.092L52.5075 268.468L46.6976 155.953L60.2041 163.749Z" fill="#E6E6E6"/>
<path d="M83.4601 177.196C84.57 177.773 85.8084 178.059 87.0591 178.027V287.217C85.8084 287.25 84.5701 286.964 83.4601 286.386L75.4892 281.782L73.6357 171.552L83.4601 177.196Z" fill="#E6E6E6"/>
<path d="M41.0738 261.867L33.2941 257.37C32.2296 256.675 31.3255 255.761 30.6419 254.689C29.9583 253.617 29.5109 252.411 29.3294 251.153L19.5715 140.292L33.1611 148.13L41.0738 261.867Z" fill="#E6E6E6"/>
<path d="M46.7018 155.949L52.5117 268.465L41.0831 261.865L33.1621 148.128L46.7018 155.949Z" fill="#FA6218"/>
<path opacity="0.1" d="M73.6696 171.521L75.5231 281.75L63.9948 275.093L60.2047 163.749L73.6696 171.521Z" fill="black"/>
<path opacity="0.1" d="M46.7018 155.949L52.5117 268.465L41.0831 261.865L33.1621 148.128L46.7018 155.949Z" fill="black"/>
<path d="M84.2378 152.71C83.5804 153.617 82.7152 154.353 81.7147 154.856C80.7143 155.359 79.6078 155.615 78.488 155.603C77.3682 155.591 76.2676 155.31 75.2786 154.785C74.2896 154.259 73.4409 153.504 72.8037 152.583C72.1665 151.663 71.7593 150.602 71.6163 149.492C71.4733 148.381 71.5986 147.252 71.9818 146.2C72.3649 145.147 72.9947 144.202 73.8184 143.443C74.6421 142.685 75.6356 142.134 76.7158 141.839C75.9597 142.886 75.5076 144.122 75.409 145.41C75.3105 146.697 75.5695 147.988 76.1575 149.138C76.7454 150.288 77.6395 151.253 78.7412 151.928C79.8428 152.602 81.1093 152.959 82.401 152.96C83.0218 152.961 83.6399 152.877 84.2378 152.71Z" fill="#E0E0E0"/>
<path d="M92.4632 153.164C92.5431 153.89 92.4478 154.624 92.1852 155.305C91.9227 155.986 91.5006 156.594 90.9543 157.079C90.4081 157.563 89.7536 157.909 89.046 158.088C88.3383 158.267 87.598 158.273 86.8873 158.107C86.1765 157.94 85.5161 157.606 84.9614 157.132C84.4067 156.657 83.9739 156.056 83.6994 155.38C83.4249 154.704 83.3166 153.971 83.3837 153.244C83.4508 152.518 83.6913 151.817 84.085 151.203C84.1846 152.159 84.5863 153.059 85.232 153.771C86.0473 154.665 87.1833 155.2 88.3918 155.259C89.6003 155.318 90.7831 154.897 91.6819 154.087C91.9802 153.814 92.2427 153.504 92.4632 153.164Z" fill="#E0E0E0"/>
<path d="M64.5056 119.971C65.1199 120.908 65.5005 121.979 65.6155 123.094C65.7305 124.208 65.5766 125.334 65.1666 126.377C64.7567 127.419 64.1026 128.349 63.2594 129.086C62.4161 129.824 61.4082 130.349 60.3203 130.617C59.2323 130.884 58.096 130.887 57.0067 130.625C55.9174 130.363 54.9068 129.844 54.0597 129.11C53.2126 128.377 52.5537 127.451 52.1384 126.411C51.723 125.37 51.5632 124.245 51.6724 123.13C52.4674 124.343 53.619 125.279 54.9685 125.809C56.3179 126.34 57.7987 126.439 59.2067 126.092C60.6147 125.746 61.8806 124.971 62.8296 123.875C63.7787 122.778 64.3643 121.415 64.5056 119.971Z" fill="#E0E0E0"/>
<path d="M53.6516 126.629C53.9898 127.275 54.1681 127.993 54.1716 128.723C54.175 129.452 54.0035 130.172 53.6713 130.822C53.3392 131.471 52.8561 132.032 52.2627 132.456C51.6692 132.88 50.9827 133.156 50.2606 133.26C49.5386 133.365 48.802 133.294 48.1128 133.055C47.4235 132.816 46.8016 132.415 46.2993 131.886C45.797 131.357 45.4289 130.715 45.2258 130.014C45.0227 129.314 44.9906 128.574 45.1321 127.859C45.5735 128.715 46.2788 129.405 47.1436 129.829C47.6805 130.095 48.2648 130.253 48.8629 130.294C49.461 130.335 50.0613 130.257 50.6294 130.066C51.1975 129.874 51.7223 129.573 52.1738 129.178C52.6254 128.784 52.9948 128.305 53.261 127.767C53.4391 127.406 53.5703 127.023 53.6516 126.629Z" fill="#E0E0E0"/>
<path d="M126.235 136.852C126.305 137.972 126.104 139.093 125.651 140.12C125.198 141.147 124.505 142.05 123.63 142.754C122.755 143.457 121.724 143.941 120.624 144.163C119.524 144.386 118.386 144.341 117.307 144.033C116.227 143.724 115.238 143.162 114.421 142.391C113.604 141.621 112.984 140.667 112.613 139.607C112.242 138.548 112.13 137.415 112.288 136.303C112.445 135.192 112.867 134.134 113.518 133.22C113.596 134.509 114.03 135.752 114.77 136.811C115.51 137.87 116.529 138.703 117.713 139.219C118.897 139.735 120.201 139.914 121.481 139.735C122.76 139.556 123.966 139.027 124.963 138.207C125.442 137.81 125.869 137.355 126.235 136.852Z" fill="#E0E0E0"/>
<path d="M133.822 133.543C133.901 134.268 133.806 135.002 133.544 135.683C133.281 136.365 132.859 136.973 132.313 137.457C131.766 137.941 131.112 138.287 130.404 138.466C129.697 138.645 128.956 138.652 128.246 138.485C127.535 138.319 126.874 137.984 126.32 137.51C125.765 137.035 125.332 136.435 125.058 135.758C124.783 135.082 124.675 134.35 124.742 133.623C124.809 132.896 125.05 132.196 125.443 131.581C125.537 132.553 125.942 133.468 126.599 134.191C127.414 135.085 128.55 135.62 129.759 135.679C130.967 135.738 132.15 135.317 133.049 134.507C133.347 134.22 133.607 133.896 133.822 133.543Z" fill="#E0E0E0"/>
<path d="M114.051 125.828C114.703 126.154 115.268 126.632 115.698 127.221C116.127 127.81 116.409 128.493 116.521 129.214C116.632 129.934 116.569 130.671 116.337 131.362C116.104 132.054 115.71 132.679 115.186 133.186C114.663 133.694 114.025 134.068 113.327 134.279C112.629 134.489 111.891 134.529 111.174 134.395C110.457 134.262 109.783 133.958 109.208 133.51C108.632 133.062 108.173 132.483 107.867 131.821C108.62 132.195 109.462 132.354 110.3 132.281C111.138 132.207 111.939 131.903 112.615 131.402C113.291 130.902 113.815 130.224 114.13 129.444C114.445 128.665 114.539 127.813 114.4 126.983C114.337 126.584 114.22 126.195 114.051 125.828Z" fill="#E0E0E0"/>
<path d="M261.773 39.4376C251.067 33.4698 236.381 34.4506 220.214 43.8012C187.358 62.7103 160.811 108.749 160.811 146.6C160.811 167.604 168.989 181.667 181.864 186.812C192.204 190.968 205.577 189.306 220.173 180.878C252.954 161.944 279.535 115.905 279.535 78.0537C279.535 58.9119 272.736 45.5217 261.773 39.4376ZM262.355 62.3945C259.03 66.035 255.506 70.008 251.99 74.1887C244.904 82.5656 238.246 91.2957 232.042 100.346C231.211 101.592 230.38 102.798 229.665 103.928C228.867 103.336 227.876 103.066 226.889 103.172C227.138 102.291 227.387 101.368 227.645 100.404L226.357 102.357C225.559 101.766 224.568 101.496 223.581 101.601C223.93 100.404 224.279 99.1072 224.628 97.7441C227.194 87.898 229.162 77.9057 230.521 67.822C231.219 62.9513 231.743 58.1472 232.133 53.6921C240.146 51.5311 247.294 52.2874 252.962 55.5872C256.634 56.9849 259.873 59.324 262.355 62.3695V62.3945ZM181.282 105.732C187.441 91.2111 197.033 77.4719 208.262 67.4978C208.387 68.8942 208.52 70.3072 208.686 71.7285C209.634 70.8142 210.589 69.9248 211.57 69.0604C211.911 73.0667 212.401 77.2807 213.124 81.3285C214.343 89.1973 216.319 96.9299 219.026 104.418C219.367 105.374 219.757 106.255 220.065 107.07C218.975 108.268 218.042 109.601 217.289 111.034C216.549 110.76 215.776 110.461 214.945 110.203C208.451 108.266 201.722 107.228 194.947 107.12C191.491 106.978 188.031 107.036 184.582 107.294C184.832 106.704 185.089 106.106 185.347 105.524C183.975 105.54 182.621 105.615 181.282 105.707V105.732ZM187.483 168.435C186.517 167.611 185.619 166.711 184.798 165.742L184.192 166.872C177.725 161.378 173.819 151.911 173.819 139.095C173.819 138.147 173.868 137.166 173.868 136.211C177.467 134.989 181.349 133.584 185.28 131.98C193.44 128.623 201.326 124.638 208.869 120.061C209.958 119.379 210.997 118.731 211.953 118.083C211.977 119.18 212.308 120.248 212.908 121.166C213.74 120.651 214.513 120.152 215.252 119.654C215.271 120.8 215.633 121.915 216.291 122.854C215.46 123.884 214.629 125.031 213.731 126.237C208.221 133.775 201.538 143.891 195.512 154.189C192.653 158.968 189.96 163.78 187.483 168.41V168.435ZM223.489 167.438C217.671 170.812 211.994 172.824 206.866 173.447C207.173 172.666 207.481 171.876 207.78 171.086C206.395 171.445 204.987 171.709 203.566 171.876C205.436 167.147 207.256 162.135 208.994 157.031C212.43 147.028 215.34 136.852 217.713 126.544C218.012 125.223 218.236 123.943 218.494 122.746C219.1 122.529 219.682 122.25 220.231 121.914C220.819 121.571 221.375 121.176 221.893 120.734C222.112 121.717 222.39 122.686 222.724 123.635C222.724 123.718 222.774 123.793 222.791 123.876C223.024 123.768 223.256 123.635 223.497 123.502C224.087 123.161 224.643 122.766 225.16 122.322H225.201C225.404 123.306 225.665 124.278 225.983 125.231C228.14 132.321 231.075 139.15 234.735 145.594C236.374 148.561 238.183 151.431 240.154 154.189C235.242 159.359 229.633 163.818 223.489 167.438ZM256.412 124.79C256.337 124.965 256.245 125.139 256.154 125.314C253.612 123.47 250.946 121.804 248.175 120.327C247.568 119.986 246.936 119.662 246.313 119.346C242.104 117.461 237.715 116.008 233.214 115.007C232.341 114.808 231.477 114.658 230.72 114.559C230.845 114.268 230.945 113.985 231.044 113.727L229.931 113.47C229.108 113.278 228.276 113.131 227.437 113.029C228.023 111.625 228.374 110.134 228.476 108.616C229.432 108.167 230.479 107.61 231.518 107.061C239.739 102.49 247.637 97.361 255.157 91.7098C259.063 88.809 262.92 85.7254 266.519 82.7913C266.519 83.7472 266.569 84.6781 266.569 85.6256C266.569 86.0828 266.569 86.5399 266.569 87.0054L269.835 84.3623C269.835 85.3181 269.835 86.2407 269.835 87.1882C269.835 99.9633 265.929 113.993 259.47 126.935C258.49 126.145 257.467 125.447 256.412 124.765V124.79Z" fill="#FA6218"/>
<path opacity="0.4" d="M261.773 39.4376C251.067 33.4698 236.381 34.4506 220.214 43.8012C187.358 62.7103 160.811 108.749 160.811 146.6C160.811 167.604 168.989 181.667 181.864 186.812C192.204 190.968 205.577 189.306 220.173 180.878C252.954 161.944 279.535 115.905 279.535 78.0537C279.535 58.9119 272.736 45.5217 261.773 39.4376ZM262.355 62.3945C259.03 66.035 255.506 70.008 251.99 74.1887C244.904 82.5656 238.246 91.2957 232.042 100.346C231.211 101.592 230.38 102.798 229.665 103.928C228.867 103.336 227.876 103.066 226.889 103.172C227.138 102.291 227.387 101.368 227.645 100.404L226.357 102.357C225.559 101.766 224.568 101.496 223.581 101.601C223.93 100.404 224.279 99.1072 224.628 97.7441C227.194 87.898 229.162 77.9057 230.521 67.822C231.219 62.9513 231.743 58.1472 232.133 53.6921C240.146 51.5311 247.294 52.2874 252.962 55.5872C256.634 56.9849 259.873 59.324 262.355 62.3695V62.3945ZM181.282 105.732C187.441 91.2111 197.033 77.4719 208.262 67.4978C208.387 68.8942 208.52 70.3072 208.686 71.7285C209.634 70.8142 210.589 69.9248 211.57 69.0604C211.911 73.0667 212.401 77.2807 213.124 81.3285C214.343 89.1973 216.319 96.9299 219.026 104.418C219.367 105.374 219.757 106.255 220.065 107.07C218.975 108.268 218.042 109.601 217.289 111.034C216.549 110.76 215.776 110.461 214.945 110.203C208.451 108.266 201.722 107.228 194.947 107.12C191.491 106.978 188.031 107.036 184.582 107.294C184.832 106.704 185.089 106.106 185.347 105.524C183.975 105.54 182.621 105.615 181.282 105.707V105.732ZM187.483 168.435C186.517 167.611 185.619 166.711 184.798 165.742L184.192 166.872C177.725 161.378 173.819 151.911 173.819 139.095C173.819 138.147 173.868 137.166 173.868 136.211C177.467 134.989 181.349 133.584 185.28 131.98C193.44 128.623 201.326 124.638 208.869 120.061C209.958 119.379 210.997 118.731 211.953 118.083C211.977 119.18 212.308 120.248 212.908 121.166C213.74 120.651 214.513 120.152 215.252 119.654C215.271 120.8 215.633 121.915 216.291 122.854C215.46 123.884 214.629 125.031 213.731 126.237C208.221 133.775 201.538 143.891 195.512 154.189C192.653 158.968 189.96 163.78 187.483 168.41V168.435ZM223.489 167.438C217.671 170.812 211.994 172.824 206.866 173.447C207.173 172.666 207.481 171.876 207.78 171.086C206.395 171.445 204.987 171.709 203.566 171.876C205.436 167.147 207.256 162.135 208.994 157.031C212.43 147.028 215.34 136.852 217.713 126.544C218.012 125.223 218.236 123.943 218.494 122.746C219.1 122.529 219.682 122.25 220.231 121.914C220.819 121.571 221.375 121.176 221.893 120.734C222.112 121.717 222.39 122.686 222.724 123.635C222.724 123.718 222.774 123.793 222.791 123.876C223.024 123.768 223.256 123.635 223.497 123.502C224.087 123.161 224.643 122.766 225.16 122.322H225.201C225.404 123.306 225.665 124.278 225.983 125.231C228.14 132.321 231.075 139.15 234.735 145.594C236.374 148.561 238.183 151.431 240.154 154.189C235.242 159.359 229.633 163.818 223.489 167.438ZM256.412 124.79C256.337 124.965 256.245 125.139 256.154 125.314C253.612 123.47 250.946 121.804 248.175 120.327C247.568 119.986 246.936 119.662 246.313 119.346C242.104 117.461 237.715 116.008 233.214 115.007C232.341 114.808 231.477 114.658 230.72 114.559C230.845 114.268 230.945 113.985 231.044 113.727L229.931 113.47C229.108 113.278 228.276 113.131 227.437 113.029C228.023 111.625 228.374 110.134 228.476 108.616C229.432 108.167 230.479 107.61 231.518 107.061C239.739 102.49 247.637 97.361 255.157 91.7098C259.063 88.809 262.92 85.7254 266.519 82.7913C266.519 83.7472 266.569 84.6781 266.569 85.6256C266.569 86.0828 266.569 86.5399 266.569 87.0054L269.835 84.3623C269.835 85.3181 269.835 86.2407 269.835 87.1882C269.835 99.9633 265.929 113.993 259.47 126.935C258.49 126.145 257.467 125.447 256.412 124.765V124.79Z" fill="white"/>
<path d="M261.773 39.4394C251.441 35.2835 238.068 36.9458 223.472 45.3739C190.683 64.283 164.085 110.313 164.085 148.173C164.085 167.29 170.893 180.696 181.847 186.814C192.561 192.782 207.248 191.801 223.456 182.442C256.237 163.516 282.818 117.486 282.818 79.6264C282.834 58.6227 274.631 44.551 261.773 39.4394ZM231.019 113.679C231.413 112.536 231.654 111.345 231.734 110.139C232.682 109.681 233.729 109.133 234.768 108.576C242.991 104.007 250.892 98.8806 258.415 93.2326C261.157 91.1879 263.875 89.0767 266.51 86.9573L269.777 84.3141C269.777 85.27 269.777 86.1926 269.777 87.1401C269.777 99.9152 265.87 113.945 259.412 126.887C258.448 126.172 257.426 125.474 256.37 124.792C254.791 123.778 253.128 122.806 251.433 121.875C249.737 120.944 248.017 120.096 246.271 119.331C242.063 117.447 237.674 115.993 233.172 114.993C232.299 114.793 231.435 114.643 230.679 114.544C230.82 114.245 230.92 113.945 231.019 113.654V113.679ZM262.354 62.3962C259.03 66.0368 255.506 70.0097 251.99 74.1905C244.903 82.5674 238.246 91.2975 232.042 100.347C231.211 101.594 230.379 102.799 229.665 103.93C228.867 103.337 227.876 103.067 226.888 103.173C227.138 102.292 227.387 101.37 227.645 100.406C227.736 100.048 227.828 99.6824 227.927 99.3167C230.492 89.4704 232.46 79.4782 233.82 69.3947C234.519 64.5406 235.034 59.7282 235.425 55.2648C241.957 53.5027 247.892 53.6856 252.962 55.5973C256.633 56.9927 259.872 59.3288 262.354 62.3713V62.3962ZM223.489 123.512C224.078 123.171 224.635 122.776 225.151 122.332H225.193C225.395 123.316 225.656 124.288 225.974 125.241C228.135 132.328 231.073 139.155 234.735 145.596C236.374 148.563 238.183 151.433 240.154 154.19C235.253 159.349 229.658 163.799 223.53 167.414C217.712 170.789 212.035 172.8 206.907 173.424C207.215 172.642 207.522 171.853 207.821 171.063C209.376 167.032 210.88 162.835 212.335 158.596C215.775 148.596 218.685 138.423 221.054 128.117C221.353 126.787 221.569 125.515 221.827 124.31C222.182 124.2 222.527 124.058 222.857 123.886C223.015 123.753 223.248 123.62 223.489 123.487V123.512ZM177.118 140.667C177.118 139.712 177.168 138.731 177.168 137.783C180.767 136.553 184.648 135.148 188.572 133.553C196.732 130.192 204.621 126.207 212.168 121.634L212.908 121.168C213.739 120.653 214.512 120.154 215.252 119.655C215.271 120.802 215.633 121.916 216.291 122.855C215.46 123.886 214.629 125.033 213.731 126.238C208.22 133.777 201.538 143.892 195.512 154.19C192.653 158.995 189.96 163.807 187.483 168.437C186.516 167.613 185.619 166.713 184.798 165.744C179.952 160.042 177.118 151.522 177.118 140.642V140.667ZM211.57 69.0871C211.911 73.0934 212.401 77.3074 213.124 81.3552C214.342 89.224 216.319 96.9566 219.026 104.445C219.366 105.401 219.757 106.282 220.065 107.096C218.975 108.295 218.042 109.627 217.288 111.061C216.549 110.787 215.776 110.488 214.945 110.23C208.451 108.292 201.722 107.255 194.947 107.146C191.491 107.004 188.031 107.063 184.582 107.321C184.831 106.731 185.089 106.132 185.347 105.55C190.938 92.9265 198.856 81.4675 208.686 71.7718C209.633 70.816 210.631 69.9266 211.57 69.0622V69.0871Z" fill="#FA6218"/>
<path opacity="0.15" d="M261.773 39.4394C251.441 35.2835 238.068 36.9458 223.472 45.3739C190.683 64.283 164.085 110.313 164.085 148.173C164.085 167.29 170.893 180.696 181.847 186.814C192.561 192.782 207.248 191.801 223.456 182.442C256.237 163.516 282.818 117.486 282.818 79.6264C282.834 58.6227 274.631 44.551 261.773 39.4394ZM231.019 113.679C231.413 112.536 231.654 111.345 231.734 110.139C232.682 109.681 233.729 109.133 234.768 108.576C242.991 104.007 250.892 98.8806 258.415 93.2326C261.157 91.1879 263.875 89.0767 266.51 86.9573L269.777 84.3141C269.777 85.27 269.777 86.1926 269.777 87.1401C269.777 99.9152 265.87 113.945 259.412 126.887C258.448 126.172 257.426 125.474 256.37 124.792C254.791 123.778 253.128 122.806 251.433 121.875C249.737 120.944 248.017 120.096 246.271 119.331C242.063 117.447 237.674 115.993 233.172 114.993C232.299 114.793 231.435 114.643 230.679 114.544C230.82 114.245 230.92 113.945 231.019 113.654V113.679ZM262.354 62.3962C259.03 66.0368 255.506 70.0097 251.99 74.1905C244.903 82.5674 238.246 91.2975 232.042 100.347C231.211 101.594 230.379 102.799 229.665 103.93C228.867 103.337 227.876 103.067 226.888 103.173C227.138 102.292 227.387 101.37 227.645 100.406C227.736 100.048 227.828 99.6824 227.927 99.3167C230.492 89.4704 232.46 79.4782 233.82 69.3947C234.519 64.5406 235.034 59.7282 235.425 55.2648C241.957 53.5027 247.892 53.6856 252.962 55.5973C256.633 56.9927 259.872 59.3288 262.354 62.3713V62.3962ZM223.489 123.512C224.078 123.171 224.635 122.776 225.151 122.332H225.193C225.395 123.316 225.656 124.288 225.974 125.241C228.135 132.328 231.073 139.155 234.735 145.596C236.374 148.563 238.183 151.433 240.154 154.19C235.253 159.349 229.658 163.799 223.53 167.414C217.712 170.789 212.035 172.8 206.907 173.424C207.215 172.642 207.522 171.853 207.821 171.063C209.376 167.032 210.88 162.835 212.335 158.596C215.775 148.596 218.685 138.423 221.054 128.117C221.353 126.787 221.569 125.515 221.827 124.31C222.182 124.2 222.527 124.058 222.857 123.886C223.015 123.753 223.248 123.62 223.489 123.487V123.512ZM177.118 140.667C177.118 139.712 177.168 138.731 177.168 137.783C180.767 136.553 184.648 135.148 188.572 133.553C196.732 130.192 204.621 126.207 212.168 121.634L212.908 121.168C213.739 120.653 214.512 120.154 215.252 119.655C215.271 120.802 215.633 121.916 216.291 122.855C215.46 123.886 214.629 125.033 213.731 126.238C208.22 133.777 201.538 143.892 195.512 154.19C192.653 158.995 189.96 163.807 187.483 168.437C186.516 167.613 185.619 166.713 184.798 165.744C179.952 160.042 177.118 151.522 177.118 140.642V140.667ZM211.57 69.0871C211.911 73.0934 212.401 77.3074 213.124 81.3552C214.342 89.224 216.319 96.9566 219.026 104.445C219.366 105.401 219.757 106.282 220.065 107.096C218.975 108.295 218.042 109.627 217.288 111.061C216.549 110.787 215.776 110.488 214.945 110.23C208.451 108.292 201.722 107.255 194.947 107.146C191.491 107.004 188.031 107.063 184.582 107.321C184.831 106.731 185.089 106.132 185.347 105.55C190.938 92.9265 198.856 81.4675 208.686 71.7718C209.633 70.816 210.631 69.9266 211.57 69.0622V69.0871Z" fill="black"/>
<path d="M216.292 122.83C215.46 123.861 214.629 125.008 213.732 126.213C208.221 133.752 201.538 143.867 195.512 154.165C192.653 158.97 189.96 163.782 187.483 168.412C186.517 167.588 185.619 166.687 184.799 165.719C187.101 161.43 189.586 157.016 192.221 152.595C198.247 142.305 204.93 132.189 210.44 124.642C211.271 123.445 212.169 122.29 212.992 121.268L212.909 121.143C213.74 120.628 214.513 120.129 215.253 119.63C215.272 120.777 215.634 121.891 216.292 122.83Z" fill="#FA6218"/>
<path opacity="0.4" d="M216.292 122.83C215.46 123.861 214.629 125.008 213.732 126.213C208.221 133.752 201.538 143.867 195.512 154.165C192.653 158.97 189.96 163.782 187.483 168.412C186.517 167.588 185.619 166.687 184.799 165.719C187.101 161.43 189.586 157.016 192.221 152.595C198.247 142.305 204.93 132.189 210.44 124.642C211.271 123.445 212.169 122.29 212.992 121.268L212.909 121.143C213.74 120.628 214.513 120.129 215.253 119.63C215.272 120.777 215.634 121.891 216.292 122.83Z" fill="black"/>
<path d="M240.146 154.191C235.245 159.349 229.65 163.8 223.522 167.415C217.704 170.79 212.027 172.801 206.899 173.424C207.206 172.643 207.514 171.853 207.813 171.064C212.19 169.909 216.386 168.152 220.281 165.844C226.407 162.227 232.002 157.777 236.904 152.62C234.914 149.863 233.079 146.997 231.41 144.034C227.8 137.646 224.901 130.882 222.766 123.862C222.999 123.754 223.231 123.621 223.472 123.488C224.062 123.147 224.618 122.752 225.135 122.307H225.176C225.379 123.292 225.639 124.263 225.957 125.217C228.121 132.313 231.065 139.148 234.735 145.597C236.371 148.564 238.178 151.433 240.146 154.191Z" fill="#FA6218"/>
<path opacity="0.3" d="M240.146 154.191C235.245 159.349 229.65 163.799 223.522 167.414C217.704 170.789 212.027 172.8 206.899 173.424C207.206 172.642 207.514 171.853 207.813 171.063C212.19 169.909 216.386 168.152 220.281 165.844C226.407 162.227 232.002 157.776 236.904 152.62" fill="black"/>
<path opacity="0.4" d="M234.736 145.596C231.085 139.137 228.161 132.294 226.017 125.191C225.699 124.238 225.438 123.266 225.236 122.282H225.194C224.678 122.726 224.121 123.121 223.532 123.462C223.291 123.595 223.058 123.728 222.825 123.836C224.94 130.862 227.819 137.635 231.411 144.033C233.056 146.994 234.865 149.861 236.83 152.619L240.155 154.19C238.184 151.432 236.375 148.563 234.736 145.596Z" fill="black"/>
<path d="M246.314 119.307C242.105 117.422 237.716 115.968 233.215 114.968C232.342 114.769 231.478 114.619 230.721 114.519C230.846 114.228 230.946 113.946 231.045 113.688C236.335 114.964 241.459 116.85 246.314 119.307Z" fill="#FA6218"/>
<path d="M269.818 87.1166C269.818 99.8917 265.911 113.922 259.453 126.863C258.489 126.148 257.466 125.45 256.411 124.769C262.495 112.442 266.244 99.1519 266.51 86.9338L269.776 84.2906C269.776 85.2465 269.818 86.1691 269.818 87.1166Z" fill="#FA6218"/>
<path opacity="0.4" d="M246.314 119.307C242.105 117.422 237.716 115.968 233.215 114.968C232.342 114.769 231.478 114.619 230.721 114.519C230.846 114.228 230.946 113.946 231.045 113.688C236.335 114.964 241.459 116.85 246.314 119.307Z" fill="black"/>
<path opacity="0.3" d="M269.818 87.1166C269.818 99.8917 265.911 113.922 259.453 126.863C258.489 126.148 257.466 125.45 256.411 124.769C262.495 112.442 266.244 99.1519 266.51 86.9338L269.776 84.2906C269.776 85.2465 269.818 86.1691 269.818 87.1166Z" fill="black"/>
<path d="M262.356 62.3728C259.031 66.0133 255.507 69.9863 251.991 74.1671C244.905 82.5439 238.247 91.274 232.043 100.324C231.212 101.571 230.381 102.776 229.666 103.906C228.868 103.314 227.877 103.044 226.89 103.15C227.139 102.269 227.388 101.346 227.646 100.382L228.743 98.7198C234.95 89.6746 241.608 80.9474 248.691 72.5712C252.207 68.4154 255.715 64.4008 259.064 60.777C257.351 58.6981 255.282 56.9394 252.955 55.5822C256.631 56.9809 259.873 59.323 262.356 62.3728Z" fill="#FA6218"/>
<path opacity="0.4" d="M262.356 62.3728C259.031 66.0133 255.507 69.9863 251.991 74.1671C244.905 82.5439 238.247 91.274 232.043 100.324C231.212 101.571 230.381 102.776 229.666 103.906C228.868 103.314 227.877 103.044 226.89 103.15C227.139 102.269 227.388 101.346 227.646 100.382L228.743 98.7198C234.95 89.6746 241.608 80.9474 248.691 72.5712C252.207 68.4154 255.715 64.4008 259.064 60.777C257.351 58.6981 255.282 56.9394 252.955 55.5822C256.631 56.9809 259.873 59.323 262.356 62.3728Z" fill="black"/>
<path d="M220.066 107.07C218.976 108.268 218.043 109.601 217.29 111.035C216.55 110.76 215.777 110.461 214.946 110.203C208.452 108.266 201.724 107.228 194.948 107.12C191.493 106.978 188.032 107.036 184.583 107.294C184.833 106.704 185.09 106.106 185.348 105.524C187.442 105.449 189.554 105.457 191.648 105.524C198.423 105.637 205.151 106.674 211.646 108.608C212.477 108.882 213.259 109.181 213.998 109.439C214.749 108.003 215.682 106.671 216.774 105.474C216.467 104.643 216.076 103.812 215.727 102.823C213.022 95.3307 211.046 87.5956 209.826 79.7245C209.377 77.0897 208.995 74.3801 208.687 71.6954C209.635 70.7811 210.59 69.8918 211.571 69.0273C211.912 73.0336 212.402 77.2476 213.126 81.2954C214.344 89.1642 216.32 96.8968 219.027 104.385C219.368 105.374 219.775 106.255 220.066 107.07Z" fill="#FA6218"/>
<path opacity="0.4" d="M216.774 105.509C215.682 106.705 214.749 108.038 213.998 109.473C213.259 109.191 212.477 108.891 211.646 108.642C205.151 106.709 198.423 105.672 191.648 105.558C189.554 105.467 187.442 105.459 185.348 105.558C185.09 106.14 184.833 106.739 184.583 107.329C188.032 107.071 191.493 107.012 194.948 107.154C201.724 107.263 208.452 108.3 214.946 110.238C215.777 110.512 216.55 110.811 217.29 111.069C218.043 109.635 218.976 108.303 220.066 107.104L216.774 105.509Z" fill="black"/>
<path opacity="0.3" d="M216.775 105.511C216.467 104.68 216.077 103.848 215.728 102.859C213.023 95.3674 211.047 87.6322 209.826 79.7611C209.378 77.1263 208.995 74.4167 208.688 71.732C209.635 70.8177 210.591 69.9284 211.572 69.064C211.913 73.0702 212.403 77.2842 213.126 81.332C214.344 89.2009 216.321 96.9335 219.027 104.422C219.368 105.378 219.759 106.259 220.066 107.073" fill="black"/>
<path d="M251.991 62.0638L277.051 76.5178C276.249 76.0648 275.416 75.6704 274.557 75.3375C267.268 72.4368 257.843 73.5838 247.553 79.4934C224.446 92.8336 205.72 125.291 205.72 151.971C205.72 165.037 210.225 174.296 217.523 178.785L192.762 164.464C185.232 160.075 180.561 150.733 180.561 137.434C180.561 110.754 199.295 78.3048 222.402 64.9646C232.691 59.0217 242.117 57.8747 249.398 60.8087C250.28 61.1694 251.135 61.5915 251.958 62.0721L251.991 62.0638Z" fill="#455A64"/>
<path d="M195.006 160.657C188.564 156.909 185.032 148.664 185.032 137.46C185.032 112.225 202.81 81.4305 224.662 68.8134C230.48 65.4887 236.165 63.7017 241.144 63.7017C243.416 63.6819 245.672 64.0908 247.793 64.9069C248.474 65.1882 249.135 65.5158 249.771 65.8877L257.759 70.5007C253.413 71.6555 249.246 73.4006 245.374 75.6872C221.088 89.7173 201.322 123.945 201.322 151.997C201.272 156.484 201.831 160.958 202.985 165.295L195.006 160.657Z" fill="#37474F"/>
<path d="M274.58 75.3368C267.299 72.4277 257.874 73.583 247.584 79.4926C224.478 92.8412 205.743 125.282 205.743 151.97C205.743 165.46 210.539 174.886 218.269 179.199C225.816 183.405 236.164 182.715 247.584 176.116C270.691 162.817 289.425 130.335 289.425 103.655C289.425 88.8765 283.657 78.9607 274.58 75.3368Z" fill="#37474F"/>
<path d="M180.708 134.261L205.876 148.789C205.976 146.878 206.175 144.941 206.45 142.971L181.29 128.442C180.991 130.415 180.797 132.354 180.708 134.261Z" fill="#455A64"/>
<path d="M214.364 70.5473L239.524 85.0762C241.053 83.8543 242.616 82.7073 244.195 81.6434L219.035 67.1229C217.456 68.1785 215.893 69.3588 214.364 70.5473Z" fill="#455A64"/>
<path d="M202.453 82.3872C201.314 83.7503 200.217 85.1633 199.128 86.6012L224.296 101.13C225.36 99.6838 226.466 98.2791 227.621 96.9077L202.453 82.3872Z" fill="#455A64"/>
<path d="M188.938 103.69C188.174 105.302 187.459 106.931 186.794 108.577L211.953 123.106C212.618 121.444 213.333 119.814 214.098 118.219L188.938 103.69Z" fill="#455A64"/>
<path d="M277.051 76.5236C276.251 76.0645 275.417 75.6672 274.557 75.335C267.642 72.5839 258.84 73.4732 249.173 78.6597C252.847 76.64 258.541 73.5813 264.966 69.6L277.051 76.5236Z" fill="#263238"/>
<path d="M247.586 79.5178C259.613 72.7604 307.987 48.8062 307.987 14.5288L282.836 0C282.836 34.2774 234.462 58.2316 222.435 64.989L226.907 67.5656L230.705 65.0721L247.636 74.855L243.239 77.0077L247.586 79.5178Z" fill="#455A64"/>
<path d="M230.703 65.0695C247.609 55.7022 281.596 35.3553 286.333 6.71326L303.838 16.8286C301.843 45.2129 263.302 66.283 248.557 74.3453L247.634 74.8523L230.703 65.0695Z" fill="#37474F"/>
<path d="M262.032 38.6064C260.763 39.759 259.469 40.8866 258.151 41.9893L283.368 56.4765C284.682 55.3794 285.978 54.249 287.242 53.0854L262.032 38.6064Z" fill="#455A64"/>
<path d="M242.092 53.6188C240.488 54.6411 238.908 55.6136 237.387 56.5362L262.613 71.0234C264.132 70.1036 265.7 69.1311 267.318 68.106L242.092 53.6188Z" fill="#455A64"/>
<path d="M277.008 20.5232C276.21 21.9306 275.345 23.3159 274.414 24.679L299.607 39.1497C300.53 37.7949 301.394 36.4234 302.192 34.9938L277.008 20.5232Z" fill="#455A64"/>
<path d="M230.705 65.0699C226.765 67.231 223.332 69.5998 223.332 69.5998L239.955 79.1998C239.955 79.1998 243.438 77.1551 247.635 74.8528L230.705 65.0699Z" fill="#37474F"/>
<path d="M284.856 52.7399C274.151 46.7722 259.464 47.7529 243.256 57.1036C210.475 76.0376 183.894 122.076 183.894 159.927C183.894 180.931 192.073 194.994 204.956 200.139C215.287 204.295 228.661 202.633 243.256 194.205C276.046 175.271 302.626 129.241 302.626 91.381C302.626 72.2558 295.819 58.8657 284.856 52.7399ZM285.446 75.6968C282.122 79.3373 278.589 83.3103 275.073 87.4911C267.989 95.87 261.332 104.6 255.125 113.648C254.294 114.895 253.463 116.1 252.748 117.23C251.951 116.638 250.959 116.368 249.972 116.474C250.221 115.593 250.479 114.67 250.728 113.706C250.279 114.379 249.856 115.028 249.448 115.659C248.65 115.069 247.66 114.799 246.672 114.903C247.021 113.706 247.37 112.41 247.719 111.046C250.281 101.199 252.249 91.2074 253.612 81.1243C254.311 76.2537 254.826 71.4495 255.217 66.9945C263.229 64.8334 270.377 65.5898 276.054 68.8895C279.725 70.3043 282.961 72.6572 285.438 75.7134L285.446 75.6968ZM204.366 119.034C210.533 104.513 220.158 90.7742 231.345 80.8002C231.47 82.1965 231.611 83.6095 231.769 85.0308C232.717 84.1165 233.678 83.2272 234.653 82.3628C234.994 86.369 235.485 90.583 236.208 94.6308C237.424 102.501 239.404 110.234 242.117 117.721C242.458 118.677 242.84 119.558 243.156 120.372C242.064 121.571 241.129 122.903 240.372 124.337C239.64 124.062 238.859 123.763 238.028 123.506C231.534 121.568 224.806 120.53 218.03 120.422C214.575 120.28 211.114 120.338 207.665 120.597C207.915 120.006 208.172 119.408 208.438 118.826C207.067 118.884 205.712 118.959 204.366 119.051V119.034ZM210.575 181.737C209.604 180.916 208.703 180.015 207.882 179.044L207.275 180.175C200.808 174.681 196.91 165.172 196.91 152.397C196.91 151.449 196.96 150.469 196.96 149.513C200.551 148.291 204.441 146.886 208.364 145.282C216.525 141.924 224.414 137.939 231.961 133.363C233.041 132.682 234.08 132.033 235.044 131.385C235.066 132.481 235.394 133.55 235.992 134.469C236.823 133.953 237.596 133.455 238.336 132.956C238.355 134.102 238.717 135.217 239.375 136.156C238.543 137.187 237.712 138.334 236.823 139.539C231.304 147.078 224.621 157.193 218.604 167.491C215.736 172.312 213.051 177.124 210.575 181.754V181.737ZM246.581 180.74C240.721 184.114 235.086 186.126 229.916 186.749C230.223 185.968 230.539 185.178 230.838 184.389C229.453 184.746 228.045 185.01 226.624 185.178C228.486 180.449 230.306 175.437 232.044 170.334C235.487 160.333 238.398 150.156 240.763 139.846C241.07 138.525 241.286 137.245 241.544 136.048C242.151 135.833 242.733 135.554 243.281 135.217C243.87 134.875 244.427 134.48 244.943 134.036H244.985C245.194 135.017 245.458 135.986 245.775 136.937L245.849 137.178C246.074 137.07 246.306 136.937 246.556 136.804C247.145 136.464 247.702 136.068 248.218 135.624H248.268C248.466 136.609 248.727 137.581 249.049 138.533C251.186 145.639 254.11 152.483 257.768 158.938C259.408 161.903 261.214 164.773 263.179 167.533C258.284 172.681 252.698 177.126 246.581 180.74ZM279.503 138.093C279.42 138.267 279.329 138.442 279.237 138.616C276.695 136.773 274.029 135.106 271.258 133.629C270.651 133.288 270.028 132.964 269.405 132.648C265.194 130.76 260.803 129.306 256.297 128.31C255.424 128.11 254.56 127.961 253.804 127.861C253.925 127.589 254.033 127.312 254.128 127.03L253.022 126.714C252.2 126.522 251.367 126.375 250.529 126.273C251.107 124.867 251.458 123.377 251.568 121.86C252.515 121.411 253.563 120.854 254.602 120.306C262.822 115.734 270.72 110.605 278.24 104.954C282.146 102.053 286.003 98.9695 289.602 96.0355C289.602 96.9913 289.652 97.9222 289.652 98.8698C289.652 99.3269 289.652 99.7841 289.652 100.25C290.766 99.3602 291.854 98.4708 292.927 97.6064C292.927 98.5622 292.927 99.4848 292.927 100.432C292.927 113.207 289.029 127.238 282.562 140.179C281.581 139.481 280.562 138.791 279.503 138.109V138.093Z" fill="#FA6218"/>
<path opacity="0.4" d="M284.856 52.7399C274.151 46.7722 259.464 47.7529 243.256 57.1036C210.475 76.0376 183.894 122.076 183.894 159.927C183.894 180.931 192.073 194.994 204.956 200.139C215.287 204.295 228.661 202.633 243.256 194.205C276.046 175.271 302.626 129.241 302.626 91.381C302.626 72.2558 295.819 58.8657 284.856 52.7399ZM285.446 75.6968C282.122 79.3373 278.589 83.3103 275.073 87.4911C267.989 95.87 261.332 104.6 255.125 113.648C254.294 114.895 253.463 116.1 252.748 117.23C251.951 116.638 250.959 116.368 249.972 116.474C250.221 115.593 250.479 114.67 250.728 113.706C250.279 114.379 249.856 115.028 249.448 115.659C248.65 115.069 247.66 114.799 246.672 114.903C247.021 113.706 247.37 112.41 247.719 111.046C250.281 101.199 252.249 91.2074 253.612 81.1243C254.311 76.2537 254.826 71.4495 255.217 66.9945C263.229 64.8334 270.377 65.5898 276.054 68.8895C279.725 70.3043 282.961 72.6572 285.438 75.7134L285.446 75.6968ZM204.366 119.034C210.533 104.513 220.158 90.7742 231.345 80.8002C231.47 82.1965 231.611 83.6095 231.769 85.0308C232.717 84.1165 233.678 83.2272 234.653 82.3628C234.994 86.369 235.485 90.583 236.208 94.6308C237.424 102.501 239.404 110.234 242.117 117.721C242.458 118.677 242.84 119.558 243.156 120.372C242.064 121.571 241.129 122.903 240.372 124.337C239.64 124.062 238.859 123.763 238.028 123.506C231.534 121.568 224.806 120.53 218.03 120.422C214.575 120.28 211.114 120.338 207.665 120.597C207.915 120.006 208.172 119.408 208.438 118.826C207.067 118.884 205.712 118.959 204.366 119.051V119.034ZM210.575 181.737C209.604 180.916 208.703 180.015 207.882 179.044L207.275 180.175C200.808 174.681 196.91 165.172 196.91 152.397C196.91 151.449 196.96 150.469 196.96 149.513C200.551 148.291 204.441 146.886 208.364 145.282C216.525 141.924 224.414 137.939 231.961 133.363C233.041 132.682 234.08 132.033 235.044 131.385C235.066 132.481 235.394 133.55 235.992 134.469C236.823 133.953 237.596 133.455 238.336 132.956C238.355 134.102 238.717 135.217 239.375 136.156C238.543 137.187 237.712 138.334 236.823 139.539C231.304 147.078 224.621 157.193 218.604 167.491C215.736 172.312 213.051 177.124 210.575 181.754V181.737ZM246.581 180.74C240.721 184.114 235.086 186.126 229.916 186.749C230.223 185.968 230.539 185.178 230.838 184.389C229.453 184.746 228.045 185.01 226.624 185.178C228.486 180.449 230.306 175.437 232.044 170.334C235.487 160.333 238.398 150.156 240.763 139.846C241.07 138.525 241.286 137.245 241.544 136.048C242.151 135.833 242.733 135.554 243.281 135.217C243.87 134.875 244.427 134.48 244.943 134.036H244.985C245.194 135.017 245.458 135.986 245.775 136.937L245.849 137.178C246.074 137.07 246.306 136.937 246.556 136.804C247.145 136.464 247.702 136.068 248.218 135.624H248.268C248.466 136.609 248.727 137.581 249.049 138.533C251.186 145.639 254.11 152.483 257.768 158.938C259.408 161.903 261.214 164.773 263.179 167.533C258.284 172.681 252.698 177.126 246.581 180.74ZM279.503 138.093C279.42 138.267 279.329 138.442 279.237 138.616C276.695 136.773 274.029 135.106 271.258 133.629C270.651 133.288 270.028 132.964 269.405 132.648C265.194 130.76 260.803 129.306 256.297 128.31C255.424 128.11 254.56 127.961 253.804 127.861C253.925 127.589 254.033 127.312 254.128 127.03L253.022 126.714C252.2 126.522 251.367 126.375 250.529 126.273C251.107 124.867 251.458 123.377 251.568 121.86C252.515 121.411 253.563 120.854 254.602 120.306C262.822 115.734 270.72 110.605 278.24 104.954C282.146 102.053 286.003 98.9695 289.602 96.0355C289.602 96.9913 289.652 97.9222 289.652 98.8698C289.652 99.3269 289.652 99.7841 289.652 100.25C290.766 99.3602 291.854 98.4708 292.927 97.6064C292.927 98.5622 292.927 99.4848 292.927 100.432C292.927 113.207 289.029 127.238 282.562 140.179C281.581 139.481 280.562 138.791 279.503 138.109V138.093Z" fill="white"/>
<path d="M284.854 52.7359C274.523 48.58 261.149 50.2424 246.554 58.6704C213.764 77.6044 187.184 123.634 187.184 161.494C187.184 180.611 193.991 194.018 204.954 200.135C215.66 206.103 230.346 205.122 246.554 195.763C279.335 176.837 305.916 130.807 305.916 92.9477C305.916 71.9608 297.737 57.8891 284.854 52.7359ZM254.101 126.976C254.495 125.832 254.735 124.642 254.816 123.435C255.772 122.978 256.819 122.429 257.858 121.872C266.078 117.303 273.976 112.177 281.496 106.529C284.239 104.484 286.957 102.373 289.592 100.254C290.706 99.3643 291.795 98.475 292.867 97.6106C292.867 98.5664 292.867 99.489 292.867 100.437C292.867 113.212 288.969 127.242 282.502 140.183C281.538 139.468 280.527 138.77 279.468 138.088C277.881 137.074 276.218 136.102 274.523 135.171C272.827 134.24 271.115 133.392 269.37 132.628C265.16 130.739 260.768 129.285 256.262 128.289C255.389 128.089 254.525 127.94 253.769 127.84C253.893 127.563 254.004 127.28 254.101 126.992V126.976ZM285.436 75.7093C282.111 79.3498 278.579 83.3228 275.063 87.5036C267.979 95.8825 261.322 104.613 255.115 113.66C254.284 114.907 253.453 116.112 252.738 117.243C251.941 116.65 250.949 116.38 249.962 116.486C250.211 115.605 250.469 114.683 250.718 113.719C250.818 113.361 250.901 112.995 251.001 112.63C253.57 102.784 255.538 92.7919 256.894 82.7077C257.592 77.8537 258.116 73.0413 258.506 68.5779C265.031 66.8158 270.974 66.9987 276.044 68.9104C279.715 70.3169 282.953 72.6611 285.436 75.7093ZM246.571 136.825C247.16 136.484 247.717 136.089 248.233 135.645H248.283C248.481 136.63 248.742 137.602 249.064 138.554C251.201 145.659 254.125 152.504 257.783 158.959C259.423 161.924 261.229 164.793 263.194 167.553C258.292 172.71 252.697 177.16 246.571 180.777C240.711 184.152 235.076 186.163 229.906 186.787C230.213 186.005 230.529 185.216 230.828 184.426C232.374 180.395 233.879 176.197 235.333 171.958C238.773 161.959 241.684 151.785 244.052 141.48C244.351 140.15 244.568 138.878 244.834 137.673C245.189 137.562 245.534 137.421 245.864 137.249C246.097 137.091 246.371 136.958 246.579 136.825H246.571ZM200.191 153.98C200.191 153.024 200.241 152.044 200.241 151.096C203.84 149.866 207.722 148.461 211.653 146.866C219.811 143.505 227.697 139.521 235.242 134.947L235.982 134.481C236.813 133.966 237.586 133.467 238.326 132.968C238.345 134.115 238.706 135.229 239.364 136.168C238.533 137.199 237.702 138.346 236.813 139.551C231.294 147.09 224.611 157.205 218.594 167.503C215.726 172.308 213.041 177.12 210.564 181.75C209.594 180.928 208.693 180.028 207.871 179.057C203.034 173.38 200.2 164.86 200.2 153.98H200.191ZM234.643 82.4002C234.984 86.4064 235.475 90.6205 236.198 94.6682C237.414 102.538 239.394 110.271 242.107 117.758C242.448 118.714 242.83 119.595 243.146 120.409C242.054 121.608 241.119 122.94 240.362 124.374C239.63 124.1 238.849 123.801 238.018 123.543C231.524 121.605 224.796 120.568 218.02 120.459C214.565 120.317 211.104 120.376 207.655 120.634C207.905 120.044 208.162 119.445 208.428 118.864C214.017 106.24 221.932 94.7811 231.759 85.0849C232.712 84.1595 233.676 83.2646 234.652 82.4002H234.643Z" fill="#FA6218"/>
<path d="M239.372 136.171C238.541 137.202 237.71 138.349 236.821 139.554C231.302 147.093 224.619 157.208 218.601 167.506C215.734 172.311 213.049 177.123 210.572 181.753C209.601 180.931 208.701 180.031 207.879 179.06C210.19 174.771 212.675 170.357 215.302 165.936C221.328 155.646 228.01 145.53 233.521 137.983C234.352 136.786 235.25 135.631 236.081 134.609L235.989 134.484C236.821 133.969 237.594 133.47 238.333 132.971C238.352 134.118 238.714 135.232 239.372 136.171Z" fill="#FA6218"/>
<path opacity="0.3" d="M239.372 136.171C238.541 137.202 237.71 138.349 236.821 139.554C231.302 147.093 224.619 157.208 218.601 167.506C215.734 172.311 213.049 177.123 210.572 181.753C209.601 180.931 208.701 180.031 207.879 179.06C210.19 174.771 212.675 170.357 215.302 165.936C221.328 155.646 228.01 145.53 233.521 137.983C234.352 136.786 235.25 135.631 236.081 134.609L235.989 134.484C236.821 133.969 237.594 133.47 238.333 132.971C238.352 134.118 238.714 135.232 239.372 136.171Z" fill="black"/>
<path d="M263.227 167.532C258.325 172.688 252.731 177.139 246.604 180.756C240.744 184.13 235.109 186.142 229.939 186.765C230.246 185.984 230.562 185.194 230.862 184.404C235.238 183.248 239.434 181.492 243.329 179.185C249.454 175.565 255.048 171.115 259.952 165.961C257.982 163.204 256.17 160.337 254.525 157.375C250.917 150.987 248.021 144.222 245.889 137.202C246.114 137.094 246.346 136.961 246.596 136.828C247.185 136.488 247.742 136.092 248.258 135.648H248.308C248.506 136.633 248.767 137.605 249.089 138.557C251.226 145.663 254.15 152.507 257.808 158.962C259.451 161.919 261.26 164.78 263.227 167.532Z" fill="#FA6218"/>
<path opacity="0.2" d="M263.227 167.532C258.325 172.688 252.731 177.139 246.604 180.756C240.744 184.13 235.109 186.142 229.939 186.765C230.246 185.984 230.562 185.194 230.862 184.405C235.238 183.248 239.434 181.492 243.329 179.185C249.454 175.565 255.048 171.115 259.952 165.961" fill="black"/>
<path opacity="0.3" d="M257.818 158.937C254.16 152.481 251.235 145.637 249.099 138.532C248.777 137.58 248.516 136.608 248.318 135.623H248.268C247.752 136.067 247.195 136.462 246.605 136.803C246.356 136.936 246.123 137.069 245.899 137.177C248.031 144.197 250.927 150.961 254.535 157.349C256.179 160.312 257.992 163.179 259.962 165.935L263.287 167.506C261.303 164.756 259.477 161.895 257.818 158.937Z" fill="black"/>
<path d="M269.404 132.644C265.194 130.755 260.802 129.302 256.297 128.305C255.424 128.106 254.56 127.956 253.803 127.856C253.925 127.585 254.033 127.307 254.127 127.025C259.42 128.302 264.546 130.188 269.404 132.644Z" fill="#FA6218"/>
<path d="M292.918 100.453C292.918 113.228 289.02 127.258 282.554 140.2C281.589 139.485 280.578 138.787 279.52 138.105C285.596 125.779 289.352 112.489 289.61 100.27C290.724 99.3811 291.813 98.4917 292.885 97.6273C292.868 98.5832 292.918 99.5058 292.918 100.453Z" fill="#FA6218"/>
<path opacity="0.3" d="M269.404 132.644C265.194 130.755 260.802 129.302 256.297 128.305C255.424 128.106 254.56 127.956 253.803 127.856C253.925 127.585 254.033 127.307 254.127 127.025C259.42 128.302 264.546 130.188 269.404 132.644Z" fill="black"/>
<path opacity="0.2" d="M292.918 100.453C292.918 113.228 289.02 127.258 282.554 140.2C281.589 139.485 280.578 138.787 279.52 138.105C285.596 125.779 289.352 112.489 289.61 100.27C290.724 99.3811 291.813 98.4917 292.885 97.6273C292.868 98.5832 292.918 99.5058 292.918 100.453Z" fill="black"/>
<path d="M285.435 75.7085C282.111 79.349 278.578 83.322 275.062 87.5028C267.979 95.8817 261.321 104.612 255.114 113.66C254.283 114.906 253.452 116.112 252.737 117.242C251.94 116.65 250.949 116.38 249.961 116.486C250.211 115.605 250.468 114.682 250.718 113.718L251.823 112.055C258.027 103.008 264.685 94.2811 271.771 85.9069C275.287 81.7511 278.794 77.7365 282.136 74.1126C280.423 72.0359 278.358 70.2774 276.035 68.9178C279.708 70.3208 282.949 72.6621 285.435 75.7085Z" fill="#FA6218"/>
<path opacity="0.3" d="M285.435 75.7085C282.111 79.349 278.578 83.322 275.062 87.5028C267.979 95.8817 261.321 104.612 255.114 113.66C254.283 114.906 253.452 116.112 252.737 117.242C251.94 116.65 250.949 116.38 249.961 116.486C250.211 115.605 250.468 114.682 250.718 113.718L251.823 112.055C258.027 103.008 264.685 94.2811 271.771 85.9069C275.287 81.7511 278.794 77.7365 282.136 74.1126C280.423 72.0359 278.358 70.2774 276.035 68.9178C279.708 70.3208 282.949 72.6621 285.435 75.7085Z" fill="black"/>
<path d="M243.154 120.413C242.062 121.611 241.127 122.943 240.37 124.377C239.638 124.103 238.857 123.804 238.026 123.546C231.532 121.608 224.804 120.571 218.028 120.463C214.573 120.321 211.112 120.379 207.663 120.637C207.913 120.047 208.17 119.448 208.436 118.867C210.531 118.792 212.642 118.8 214.737 118.867C221.512 118.983 228.24 120.023 234.734 121.959C235.566 122.233 236.339 122.532 237.078 122.79C237.832 121.356 238.765 120.024 239.854 118.825C239.547 117.994 239.156 117.163 238.807 116.174C236.106 108.681 234.132 100.946 232.914 93.0755C232.457 90.4407 232.083 87.7311 231.767 85.0465C232.715 84.1322 233.676 83.2428 234.651 82.3784C234.992 86.3846 235.483 90.5987 236.206 94.6465C237.422 102.516 239.401 110.249 242.115 117.736C242.456 118.717 242.838 119.598 243.154 120.413Z" fill="#FA6218"/>
<path opacity="0.3" d="M239.854 118.847C238.765 120.046 237.832 121.378 237.078 122.812C236.339 122.529 235.557 122.23 234.734 121.98C228.24 120.048 221.512 119.011 214.737 118.897C212.642 118.805 210.531 118.797 208.436 118.897C208.17 119.479 207.913 120.077 207.663 120.667C211.112 120.409 214.573 120.351 218.028 120.493C224.812 120.582 231.553 121.602 238.059 123.526C238.89 123.801 239.672 124.1 240.403 124.358C241.16 122.924 242.096 121.592 243.187 120.393L239.854 118.847Z" fill="black"/>
<path opacity="0.2" d="M239.854 118.85C239.547 118.019 239.156 117.188 238.807 116.199C236.106 108.706 234.132 100.971 232.914 93.1003C232.457 90.4655 232.083 87.7559 231.767 85.0712C232.715 84.157 233.676 83.2676 234.651 82.4032C234.992 86.4094 235.483 90.6234 236.206 94.6712C237.422 102.541 239.401 110.274 242.115 117.761C242.456 118.717 242.838 119.598 243.154 120.413" fill="black"/>
<path d="M192.055 293.991H184.633L185.822 301.23C185.869 301.424 185.958 301.604 186.083 301.76C186.208 301.915 186.366 302.04 186.545 302.128C187.101 302.406 187.714 302.551 188.336 302.551C188.958 302.551 189.571 302.406 190.127 302.128C190.307 302.042 190.466 301.917 190.591 301.761C190.716 301.606 190.805 301.424 190.85 301.23L192.055 293.991Z" fill="#FAFAFA"/>
<path d="M188.347 295.956C190.404 295.956 192.071 294.992 192.071 293.803C192.071 292.614 190.404 291.65 188.347 291.65C186.291 291.65 184.624 292.614 184.624 293.803C184.624 294.992 186.291 295.956 188.347 295.956Z" fill="#FAFAFA"/>
<path d="M154.302 272.03H146.88L148.068 279.269C148.116 279.461 148.206 279.641 148.331 279.795C148.456 279.948 148.613 280.073 148.792 280.158C149.346 280.441 149.96 280.588 150.583 280.588C151.205 280.588 151.819 280.441 152.374 280.158C152.552 280.073 152.71 279.948 152.835 279.795C152.96 279.641 153.049 279.461 153.097 279.269L154.302 272.03Z" fill="#FAFAFA"/>
<path d="M147.952 270.313C146.497 271.144 146.497 272.515 147.952 273.355C148.768 273.769 149.671 273.986 150.587 273.986C151.502 273.986 152.405 273.769 153.222 273.355C154.684 272.524 154.684 271.152 153.222 270.313C152.405 269.898 151.502 269.682 150.587 269.682C149.671 269.682 148.768 269.898 147.952 270.313Z" fill="#FAFAFA"/>
<path d="M299.682 239.536H292.26L293.44 246.775C293.484 246.969 293.571 247.15 293.695 247.306C293.819 247.461 293.976 247.587 294.155 247.673C294.711 247.956 295.326 248.103 295.95 248.103C296.574 248.103 297.189 247.956 297.746 247.673C297.925 247.586 298.083 247.46 298.208 247.305C298.333 247.15 298.422 246.969 298.469 246.775L299.682 239.536Z" fill="#FAFAFA"/>
<path d="M293.333 237.82C291.879 238.651 291.879 240.023 293.333 240.862C294.149 241.277 295.052 241.493 295.968 241.493C296.884 241.493 297.786 241.277 298.603 240.862C300.057 240.031 300.057 238.659 298.603 237.82C297.786 237.405 296.884 237.189 295.968 237.189C295.052 237.189 294.149 237.405 293.333 237.82Z" fill="#FAFAFA"/>
<path d="M261.922 217.576H254.499L255.688 224.816C255.736 225.008 255.825 225.187 255.95 225.341C256.075 225.495 256.232 225.619 256.411 225.705C256.967 225.988 257.582 226.135 258.206 226.135C258.83 226.135 259.445 225.988 260.002 225.705C260.18 225.621 260.338 225.497 260.461 225.343C260.585 225.189 260.672 225.008 260.716 224.816L261.922 217.576Z" fill="#FAFAFA"/>
<path d="M255.581 215.854C254.127 216.685 254.127 218.056 255.581 218.904C256.398 219.319 257.3 219.535 258.216 219.535C259.132 219.535 260.034 219.319 260.851 218.904C262.305 218.073 262.305 216.702 260.851 215.854C260.034 215.439 259.132 215.223 258.216 215.223C257.3 215.223 256.398 215.439 255.581 215.854Z" fill="#FAFAFA"/>
<path d="M305.603 201.516V236.084C305.533 237.332 305.171 238.547 304.546 239.63C303.921 240.712 303.05 241.633 302.004 242.318L299.07 243.98H299.02C297.627 244.664 296.065 244.933 294.523 244.753L205.256 294.224C205.15 295.424 204.775 296.585 204.159 297.621C203.543 298.657 202.702 299.541 201.699 300.208L198.773 301.871C198.687 301.928 198.595 301.975 198.499 302.012C198.45 302.04 198.4 302.065 198.349 302.087H198.307C196.533 302.824 194.557 302.915 192.722 302.344C192.509 302.281 192.301 302.203 192.099 302.112L191.999 302.07C191.849 302.004 191.708 301.929 191.575 301.854L144.722 274.916C143.675 274.232 142.804 273.311 142.179 272.228C141.554 271.146 141.192 269.931 141.123 268.682V210.717C141.194 209.468 141.556 208.254 142.181 207.172C142.806 206.089 143.677 205.168 144.722 204.483L247.978 144.83C249.093 144.264 250.326 143.969 251.577 143.969C252.828 143.969 254.061 144.264 255.176 144.83L258.11 146.492C259.183 147.194 260.104 148.105 260.818 149.17C261.532 150.236 262.024 151.433 262.266 152.693L265.092 173.912L302.012 195.232C303.064 195.922 303.937 196.851 304.561 197.943C305.185 199.035 305.542 200.259 305.603 201.516Z" fill="#37474F"/>
<path d="M258.114 146.521L255.188 144.859C254.073 144.293 252.84 143.998 251.589 143.998C250.338 143.998 249.105 144.293 247.99 144.859L144.726 204.487C144.51 204.611 144.285 204.769 144.352 204.719C142.619 206.027 141.472 207.965 141.16 210.114C141.426 208.277 142.922 207.62 144.717 208.642L147.651 210.305C148.767 210.871 150 211.165 151.25 211.165C152.501 211.165 153.734 210.871 154.849 210.305L258.114 150.643C260.1 149.53 260.1 147.668 258.114 146.521Z" fill="#455A64"/>
<path d="M305.601 201.514V236.082C305.531 237.33 305.169 238.545 304.544 239.628C303.919 240.711 303.048 241.631 302.002 242.316L299.068 243.978H299.018C297.721 244.651 296.259 244.939 294.804 244.809C293.777 244.749 292.775 244.466 291.87 243.978L258.556 224.787C257.51 224.102 256.639 223.181 256.014 222.099C255.389 221.016 255.027 219.801 254.958 218.553V183.943C255.026 182.694 255.387 181.479 256.012 180.396C256.638 179.313 257.509 178.393 258.556 177.709L265.081 173.936L302.002 195.255C303.051 195.942 303.924 196.867 304.549 197.954C305.175 199.042 305.535 200.261 305.601 201.514Z" fill="#263238"/>
<path d="M265.081 173.936L258.556 177.709C256.578 178.848 256.578 180.718 258.556 181.865L291.869 201.098C292.916 201.782 293.787 202.703 294.413 203.786C295.038 204.869 295.399 206.083 295.468 207.332V241.909C295.468 244.194 297.089 245.125 299.067 243.987L302.001 242.324C303.047 241.639 303.917 240.718 304.542 239.635C305.167 238.553 305.529 237.339 305.6 236.09V201.514C305.529 200.266 305.167 199.052 304.542 197.969C303.917 196.886 303.047 195.965 302.001 195.28L265.081 173.936Z" fill="#455A64"/>
<path d="M295.47 207.336V241.913C295.47 244.198 297.091 245.129 299.069 243.99L302.003 242.328C303.048 241.643 303.918 240.722 304.543 239.639C305.168 238.557 305.531 237.342 305.602 236.094V201.518C305.563 200.257 305.202 199.026 304.554 197.944L294.422 203.762C295.073 204.843 295.434 206.074 295.47 207.336Z" fill="#37474F"/>
<path d="M293.971 244.811C293.626 245.527 293.184 246.193 292.658 246.789C291.638 247.723 290.501 248.519 289.275 249.158L209.607 295.188C209.05 295.47 208.433 295.618 207.808 295.618C207.183 295.618 206.566 295.47 206.008 295.188L194.306 288.43L170.892 274.916C169.804 274.342 168.894 273.482 168.259 272.429C167.624 271.376 167.288 270.169 167.288 268.939C167.288 267.71 167.624 266.503 168.259 265.45C168.894 264.397 169.804 263.537 170.892 262.963L184.19 255.292L194.322 249.474L250.526 216.95C251.642 216.387 252.875 216.094 254.125 216.094C255.375 216.094 256.607 216.387 257.724 216.95L291.037 236.192C292.064 236.835 292.925 237.712 293.55 238.75C294.175 239.788 294.547 240.959 294.636 242.168C294.608 243.086 294.381 243.988 293.971 244.811Z" fill="#263238"/>
<path d="M209.618 287.391L292.843 239.3C293.832 238.726 294.638 239.192 294.638 240.339V243.979C294.604 244.603 294.423 245.21 294.111 245.752C293.8 246.293 293.365 246.754 292.843 247.096L209.609 295.188C208.62 295.761 207.814 295.296 207.814 294.149V290.508C207.848 289.883 208.029 289.275 208.342 288.734C208.656 288.192 209.093 287.732 209.618 287.391Z" fill="#37474F"/>
<path d="M250.526 199.124L170.892 245.137C169.845 245.821 168.973 246.741 168.348 247.824C167.722 248.907 167.361 250.122 167.293 251.371V258.652C167.361 259.901 167.722 261.116 168.348 262.199C168.973 263.282 169.845 264.202 170.892 264.886L204.213 284.119C205.329 284.685 206.562 284.98 207.812 284.98C209.063 284.98 210.296 284.685 211.411 284.119L291.037 238.089C292.084 237.405 292.955 236.484 293.58 235.401C294.206 234.319 294.567 233.104 294.636 231.855V224.566C294.568 223.317 294.206 222.102 293.581 221.019C292.956 219.936 292.084 219.016 291.037 218.332L257.724 199.099C256.607 198.537 255.373 198.246 254.122 198.251C252.871 198.255 251.639 198.554 250.526 199.124Z" fill="#37474F"/>
<path d="M207.812 269.38V284.981C206.561 285.015 205.323 284.729 204.213 284.15L170.892 264.917C169.845 264.233 168.973 263.313 168.348 262.23C167.722 261.147 167.361 259.932 167.293 258.683V251.385C167.36 250.209 167.685 249.063 168.243 248.026C168.802 246.989 169.581 246.087 170.526 245.384C168.914 246.539 169.038 248.235 170.892 249.307L204.213 268.541C205.322 269.122 206.561 269.411 207.812 269.38Z" fill="#263238"/>
<path d="M211.412 268.527L291.038 222.514C293.025 221.367 293.025 219.505 291.038 218.358L257.725 199.124C256.61 198.559 255.377 198.264 254.126 198.264C252.875 198.264 251.642 198.559 250.527 199.124L170.893 245.138C168.906 246.285 168.906 248.147 170.893 249.294L204.214 268.527C205.33 269.093 206.563 269.388 207.813 269.388C209.064 269.388 210.297 269.093 211.412 268.527Z" fill="#455A64"/>
<path d="M242.058 199.563L214.447 200.32L214.139 170.315C214.089 168.503 214.397 166.698 215.045 165.005C215.693 163.312 216.668 161.763 217.914 160.447C219.161 159.131 220.655 158.074 222.31 157.335C223.966 156.597 225.75 156.192 227.563 156.143C229.375 156.093 231.18 156.401 232.873 157.049C234.567 157.696 236.116 158.671 237.433 159.918C238.75 161.164 239.808 162.658 240.547 164.314C241.287 165.969 241.693 167.754 241.742 169.567L242.058 199.563Z" fill="#263238"/>
<path d="M234.396 185.419C236.357 185.195 239.166 183.89 242.059 189.284C244.951 194.678 250.528 206.24 250.528 206.24L256.072 199.94L260.328 203.381C260.328 203.381 253.945 213.064 252.108 214.892C250.653 216.339 248.924 216.555 247.038 214.128C244.818 211.31 237.82 199.94 237.82 199.94L234.396 185.419Z" fill="#FFA8A7"/>
<path d="M274.223 202.071C274.306 201.965 274.359 201.838 274.374 201.704C274.389 201.57 274.367 201.434 274.309 201.312C274.251 201.19 274.16 201.087 274.046 201.014C273.933 200.941 273.801 200.901 273.666 200.899C273.569 200.899 273.473 200.919 273.385 200.958C273.296 200.997 273.216 201.053 273.15 201.124C273.15 201.049 273.15 200.974 273.15 200.899C273.15 200.613 273.094 200.329 272.984 200.064C272.874 199.799 272.713 199.559 272.51 199.356C272.307 199.154 272.066 198.994 271.8 198.885C271.535 198.776 271.251 198.72 270.964 198.722C270.588 198.719 270.218 198.817 269.892 199.004C269.954 198.859 269.979 198.702 269.965 198.545C269.951 198.388 269.898 198.237 269.812 198.106C269.725 197.974 269.608 197.866 269.47 197.791C269.332 197.715 269.177 197.675 269.02 197.674C268.847 197.674 268.678 197.72 268.529 197.807C268.538 197.694 268.538 197.58 268.529 197.466C268.508 196.924 268.311 196.403 267.967 195.983C267.624 195.563 267.152 195.267 266.625 195.139C266.097 195.011 265.543 195.059 265.045 195.275C264.547 195.491 264.133 195.863 263.866 196.336C263.814 196.167 263.708 196.019 263.565 195.913C263.423 195.808 263.25 195.751 263.073 195.751C262.895 195.751 262.722 195.808 262.58 195.913C262.437 196.019 262.331 196.167 262.279 196.336C262.057 195.978 261.724 195.702 261.331 195.55C260.938 195.399 260.507 195.379 260.102 195.495C259.697 195.61 259.34 195.855 259.087 196.191C258.833 196.527 258.696 196.937 258.696 197.358C258.688 197.455 258.688 197.553 258.696 197.649C258.592 197.562 258.464 197.507 258.328 197.49C258.193 197.473 258.056 197.495 257.932 197.553C257.809 197.612 257.705 197.704 257.633 197.82C257.561 197.936 257.523 198.07 257.524 198.206C257.273 198.057 256.986 197.976 256.693 197.973C256.278 197.975 255.877 198.127 255.564 198.4C255.251 198.673 255.047 199.05 254.989 199.461C254.87 199.418 254.743 199.395 254.615 199.395C254.474 199.394 254.334 199.421 254.204 199.474C254.073 199.528 253.955 199.607 253.855 199.706C253.755 199.806 253.676 199.925 253.623 200.055C253.569 200.186 253.542 200.326 253.543 200.467C253.544 200.597 253.567 200.726 253.61 200.849C253.044 201.046 252.569 201.44 252.27 201.959C251.971 202.478 251.868 203.086 251.981 203.674C252.094 204.262 252.415 204.79 252.885 205.161C253.355 205.532 253.942 205.722 254.541 205.695L263.559 211.771L273.209 205.554C273.617 205.553 274.014 205.42 274.339 205.174C274.665 204.928 274.902 204.582 275.013 204.19C275.125 203.797 275.106 203.379 274.959 202.998C274.812 202.617 274.545 202.295 274.198 202.079L274.223 202.071Z" fill="#F5F5F5"/>
<path d="M265.904 209.099L265.589 227.858L267.558 226.728L268.198 207.769L265.904 209.099Z" fill="#FAFAFA"/>
<path d="M268.199 207.767L267.559 226.726L269.512 225.596L270.501 206.445L268.199 207.767Z" fill="#FA6218"/>
<path d="M264.234 210.061C264.046 210.164 263.834 210.216 263.619 210.211V228.787C263.833 228.791 264.044 228.743 264.234 228.646L265.589 227.857L265.905 209.097L264.234 210.061Z" fill="#FA6218"/>
<path d="M271.456 224.472L272.777 223.707C272.958 223.59 273.112 223.435 273.228 223.253C273.344 223.07 273.42 222.866 273.451 222.652L275.113 203.776L272.802 205.114L271.456 224.472Z" fill="#FA6218"/>
<path d="M270.501 206.447L269.512 225.597L271.457 224.475L272.803 205.117L270.501 206.447Z" fill="#FAFAFA"/>
<path d="M261.333 209.099L261.649 227.858L259.688 226.728L259.048 207.769L261.333 209.099Z" fill="#FA6218"/>
<path d="M259.048 207.767L259.688 226.726L257.734 225.596L256.745 206.445L259.048 207.767Z" fill="#E0E0E0"/>
<path d="M262.994 210.061C263.18 210.163 263.389 210.215 263.601 210.211V228.787C263.39 228.79 263.182 228.741 262.994 228.646L261.631 227.856L261.332 209.097L262.994 210.061Z" fill="#E0E0E0"/>
<path d="M255.789 224.472L254.468 223.707C254.286 223.59 254.13 223.435 254.013 223.253C253.895 223.071 253.818 222.866 253.786 222.651L252.124 203.776L254.443 205.114L255.789 224.472Z" fill="#E0E0E0"/>
<path d="M256.746 206.447L257.735 225.597L255.79 224.475L254.443 205.117L256.746 206.447Z" fill="#FA6218"/>
<path opacity="0.1" d="M261.333 209.099L261.649 227.858L259.688 226.728L259.048 207.769L261.333 209.099Z" fill="black"/>
<path opacity="0.1" d="M256.746 206.447L257.735 225.597L255.79 224.475L254.443 205.117L256.746 206.447Z" fill="black"/>
<path d="M263.135 205.887C263.024 206.041 262.877 206.166 262.709 206.252C262.54 206.339 262.353 206.385 262.163 206.386C261.869 206.393 261.584 206.292 261.36 206.101C261.137 205.91 260.993 205.644 260.955 205.352C260.916 205.061 260.987 204.766 261.154 204.524C261.32 204.282 261.57 204.111 261.855 204.042C261.703 204.243 261.621 204.488 261.623 204.74C261.625 205.056 261.752 205.359 261.976 205.581C262.2 205.804 262.504 205.929 262.82 205.929C262.926 205.932 263.033 205.918 263.135 205.887Z" fill="#E0E0E0"/>
<path d="M264.532 205.969C264.545 206.091 264.529 206.215 264.484 206.33C264.439 206.445 264.368 206.548 264.275 206.63C264.183 206.711 264.072 206.77 263.952 206.8C263.833 206.83 263.708 206.831 263.588 206.803C263.467 206.775 263.356 206.719 263.262 206.638C263.168 206.558 263.095 206.457 263.048 206.343C263.001 206.228 262.983 206.105 262.994 205.982C263.005 205.859 263.045 205.74 263.111 205.636C263.127 205.797 263.194 205.949 263.302 206.068C263.441 206.221 263.633 206.312 263.839 206.323C264.044 206.334 264.246 206.263 264.399 206.127C264.453 206.082 264.498 206.029 264.532 205.969Z" fill="#E0E0E0"/>
<path d="M259.778 200.321C259.914 200.532 259.98 200.78 259.967 201.031C259.954 201.282 259.862 201.522 259.705 201.718C259.548 201.914 259.333 202.055 259.091 202.122C258.849 202.189 258.592 202.178 258.357 202.091C258.112 201.999 257.904 201.829 257.766 201.606C257.627 201.384 257.566 201.122 257.592 200.861C257.73 201.071 257.931 201.231 258.166 201.318C258.312 201.374 258.468 201.401 258.624 201.397C258.781 201.392 258.935 201.357 259.078 201.293C259.221 201.229 259.35 201.137 259.457 201.023C259.564 200.909 259.648 200.775 259.703 200.628C259.74 200.529 259.765 200.426 259.778 200.321Z" fill="#E0E0E0"/>
<path d="M257.923 201.447C257.981 201.555 258.011 201.677 258.011 201.8C258.011 201.923 257.981 202.044 257.923 202.153C257.878 202.244 257.815 202.326 257.739 202.393C257.662 202.46 257.573 202.511 257.476 202.544C257.38 202.576 257.278 202.589 257.176 202.582C257.074 202.575 256.975 202.548 256.884 202.502C256.733 202.428 256.611 202.307 256.536 202.157C256.46 202.007 256.437 201.836 256.469 201.671C256.533 201.799 256.632 201.906 256.753 201.981C256.875 202.056 257.015 202.095 257.158 202.095C257.301 202.095 257.442 202.056 257.563 201.981C257.685 201.906 257.784 201.799 257.848 201.671C257.887 201.602 257.913 201.525 257.923 201.447Z" fill="#E0E0E0"/>
<path d="M270.285 203.18C270.297 203.371 270.262 203.562 270.184 203.737C270.107 203.912 269.988 204.066 269.839 204.185C269.689 204.305 269.513 204.387 269.326 204.425C269.138 204.462 268.944 204.454 268.76 204.401C268.576 204.349 268.407 204.252 268.268 204.121C268.129 203.989 268.024 203.826 267.96 203.646C267.897 203.465 267.879 203.272 267.906 203.082C267.933 202.893 268.005 202.712 268.116 202.556C268.135 202.809 268.23 203.05 268.39 203.246C268.591 203.486 268.878 203.637 269.189 203.666C269.5 203.696 269.81 203.602 270.052 203.404C270.141 203.341 270.219 203.266 270.285 203.18Z" fill="#E0E0E0"/>
<path d="M271.573 202.633C271.586 202.755 271.57 202.879 271.525 202.994C271.48 203.109 271.409 203.212 271.316 203.294C271.224 203.375 271.113 203.434 270.993 203.464C270.874 203.494 270.749 203.495 270.628 203.467C270.508 203.439 270.397 203.382 270.303 203.302C270.209 203.222 270.136 203.121 270.089 203.007C270.042 202.892 270.024 202.769 270.035 202.646C270.045 202.523 270.086 202.404 270.152 202.3C270.167 202.442 270.221 202.577 270.308 202.69C270.395 202.803 270.512 202.89 270.645 202.941C270.779 202.991 270.924 203.004 271.064 202.978C271.204 202.951 271.334 202.886 271.44 202.79C271.494 202.746 271.539 202.693 271.573 202.633Z" fill="#E0E0E0"/>
<path d="M268.207 201.316C268.356 201.387 268.479 201.504 268.557 201.65C268.635 201.797 268.664 201.964 268.64 202.128C268.616 202.292 268.54 202.443 268.423 202.561C268.306 202.678 268.154 202.754 267.99 202.779C267.823 202.807 267.65 202.779 267.5 202.7C267.35 202.62 267.23 202.493 267.159 202.339C267.306 202.411 267.472 202.435 267.633 202.405C267.733 202.389 267.829 202.353 267.916 202.3C268.002 202.246 268.077 202.176 268.135 202.093C268.194 202.01 268.236 201.916 268.258 201.817C268.28 201.718 268.283 201.616 268.265 201.516C268.259 201.446 268.24 201.378 268.207 201.316Z" fill="#E0E0E0"/>
<path d="M255.79 198.251C255.79 198.841 256.563 199.655 257.012 200.104C257.46 200.553 258.873 201.284 259.256 201.808C259.638 202.332 260.187 202.299 260.345 201.451C260.502 200.603 259.081 199.107 259.048 198.658C259.015 198.209 260.876 198.251 262.057 198.7C263.237 199.148 264.5 201.26 264.958 202.299C265.415 203.337 268.282 203.254 268.199 200.27C268.116 197.287 266.636 195.874 264.999 195.109C263.186 194.342 261.18 194.153 259.256 194.569C257.419 194.984 255.407 196.48 254.443 199.406C254.635 199.368 254.834 199.386 255.017 199.456C255.05 199.211 255.137 198.976 255.27 198.768C255.404 198.56 255.581 198.383 255.79 198.251Z" fill="#FFA8A7"/>
<path d="M201.63 194.137C204.182 193.206 218.32 187.147 223.108 187.239L223.623 199L208.413 205.907L201.63 194.137Z" fill="#E0E0E0"/>
<path d="M260.402 261.23C259.92 261.737 259.371 262.318 259.429 262.958C259.611 264.311 260.213 265.573 261.15 266.566C262.48 268.004 263.361 270.722 263.643 272.625C263.926 274.528 264.059 279.274 266.428 281.119C268.797 282.965 274.54 283.929 274.54 280.463C274.54 276.997 267.683 263.64 267.683 263.64L260.402 261.23Z" fill="#263238"/>
<path d="M263.586 263.457C264.544 265.889 265.319 268.39 265.905 270.937C266.486 273.722 267.309 275.683 268.731 276.431C270.152 277.179 272.271 277.047 271.473 275.151C270.676 273.256 267.642 263.656 267.642 263.656L263.586 263.457Z" fill="#F28F8F"/>
<path d="M245.232 216.038C245.232 216.038 256.52 221.199 262.005 224.15C267.491 227.101 272.719 229.968 273.808 232.354C274.963 234.847 274.639 240.848 274.066 246.6C273.492 252.352 272.204 262.683 272.204 262.683L256.129 238.579L239.979 227.907L245.232 216.038Z" fill="#FA6218"/>
<path opacity="0.1" d="M266.088 241.413C264.5 237.723 261.043 235.271 257.776 233.268C255.199 231.672 248.774 227.932 246.256 226.469C246.76 225.208 247.041 223.869 247.087 222.512C247.087 222.512 246.298 224.324 245.367 225.962L244.693 227.067L261.234 239.41L272.596 259.699C272.596 259.699 267.675 245.062 266.088 241.413Z" fill="black"/>
<path d="M273.576 280.721C273.11 281.028 273.177 282.175 273.218 283.023C273.26 283.871 272.662 284.968 273.883 286.264C275.105 287.561 277.166 287.677 278.87 289.456C280.574 291.235 283.101 294.501 287.689 294.742C292.277 294.983 295.427 292.972 296.042 291.517C296.657 290.063 295.726 288.933 292.626 287.761C289.301 286.514 288.404 286.148 288.404 286.148L273.576 280.721Z" fill="#263238"/>
<path d="M276.899 270.833C276.899 270.833 279.991 276.419 281.728 278.937C283.657 281.548 285.975 283.847 288.602 285.753C289.184 286.193 290.456 286.983 290.929 287.34C291.043 287.403 291.141 287.491 291.214 287.597C291.288 287.704 291.335 287.827 291.353 287.955C291.371 288.083 291.358 288.214 291.316 288.337C291.275 288.46 291.205 288.571 291.112 288.662C290.348 289.776 286.333 290.831 283.707 289.601C281.08 288.371 278.171 285.586 276.534 284.489C275.702 283.949 274.938 283.425 274.364 283.035C274.093 282.854 273.873 282.606 273.728 282.314C273.582 282.023 273.515 281.698 273.533 281.372C273.533 281.181 273.533 280.965 273.533 280.708C273.533 279.336 270.732 274.308 270.732 274.308L276.899 270.833Z" fill="#FFA8A7"/>
<path d="M220.256 222.413C220.306 227.001 220.53 229.561 222.941 233.75C225.351 237.939 231.252 240.582 238.143 242.893C243.878 244.821 252.273 247.572 253.985 247.93C255.697 248.287 256.005 249.185 256.395 252.152C256.786 255.119 258.772 259.682 263.252 264.994C266.507 268.934 269.545 273.049 272.354 277.32C272.354 277.32 277.033 277.32 278.82 274.203C278.82 274.203 265.796 243.45 263.71 239.926C261.623 236.401 244.709 227.026 244.709 227.026C244.709 227.026 244.992 220.667 245.216 216.038L220.256 222.413Z" fill="#FA6218"/>
<path d="M223.098 187.236L219.025 189.281C219.025 189.281 221.835 192.098 221.062 199.022C220.521 203.926 219.399 204.35 216.906 205.729C220.23 213.26 220.23 224.348 220.23 224.348C220.23 224.348 226.09 227.489 236.737 224.464C246.096 221.812 245.165 216.036 245.165 216.036L241.143 212.936L240.237 205.605C240.237 205.605 243.403 202.421 242.032 196.753C240.661 191.084 234.327 185.416 234.327 185.416H231.834L223.098 187.236Z" fill="#FAFAFA"/>
<path d="M243.729 220.461C238.967 222.24 232.093 221.957 228.851 220.461C224.296 218.358 222.393 212.582 222.767 208.9C223.382 202.89 222.875 198.826 221.437 195.102H221.121C221.24 196.405 221.224 197.717 221.071 199.017C220.531 203.921 219.409 204.345 216.916 205.725C220.033 213.072 220.24 224.343 220.24 224.343C220.24 224.343 226.1 227.485 236.747 224.459C239.773 223.628 242.208 222.273 243.671 220.453L243.729 220.461Z" fill="#F0F0F0"/>
<path d="M236.239 162.095C237.719 162.926 239.622 166.533 239.647 174.221C239.647 180.746 237.611 182.408 236.563 182.899C235.516 183.389 233.463 183.165 231.46 182.899L231.502 185.6C231.502 185.6 235.084 189.523 234.959 191.318C234.835 193.114 230.371 194.036 227.753 192.374C225.859 190.997 224.21 189.311 222.874 187.387L222.675 178.352C222.675 178.352 221.536 179.524 219.508 177.845C217.846 176.457 217.214 174.055 218.452 172.725C218.775 172.408 219.168 172.172 219.599 172.036C220.031 171.901 220.488 171.87 220.934 171.946C221.38 172.023 221.801 172.204 222.163 172.475C222.525 172.746 222.817 173.1 223.015 173.507C225.624 173.329 228.146 172.504 230.355 171.104C231.974 170.17 233.351 168.868 234.373 167.303C235.396 165.737 236.035 163.953 236.239 162.095Z" fill="#FFA8A7"/>
<path d="M232.331 172.782C232.343 172.891 232.332 173.002 232.301 173.107C232.269 173.212 232.217 173.31 232.148 173.395C232.078 173.48 231.993 173.551 231.896 173.602C231.799 173.654 231.692 173.686 231.583 173.696C231.473 173.704 231.362 173.69 231.257 173.654C231.152 173.619 231.055 173.562 230.972 173.489C230.889 173.415 230.822 173.326 230.774 173.226C230.726 173.126 230.699 173.017 230.694 172.907C230.686 172.798 230.699 172.688 230.733 172.584C230.767 172.48 230.822 172.384 230.893 172.301C231.037 172.133 231.242 172.03 231.463 172.013C231.683 171.997 231.901 172.068 232.069 172.213C232.236 172.357 232.34 172.562 232.356 172.782H232.331Z" fill="#263238"/>
<path d="M232.698 178.3L234.618 178.857C234.588 178.985 234.531 179.105 234.453 179.211C234.375 179.316 234.276 179.405 234.163 179.471C234.05 179.538 233.924 179.581 233.794 179.599C233.664 179.616 233.532 179.607 233.405 179.572C233.147 179.491 232.929 179.314 232.798 179.077C232.666 178.841 232.631 178.562 232.698 178.3Z" fill="#F28F8F"/>
<path d="M238.982 170.081L237.319 168.984C237.384 168.869 237.472 168.77 237.577 168.691C237.682 168.612 237.802 168.555 237.93 168.525C238.058 168.494 238.191 168.49 238.32 168.514C238.45 168.537 238.573 168.587 238.682 168.66C238.903 168.815 239.057 169.048 239.112 169.311C239.168 169.575 239.121 169.85 238.982 170.081Z" fill="#263238"/>
<path d="M238.65 172.016C238.658 172.18 238.617 172.342 238.533 172.483C238.449 172.623 238.325 172.736 238.177 172.806C238.029 172.877 237.863 172.902 237.701 172.879C237.539 172.855 237.387 172.784 237.265 172.675C237.143 172.565 237.056 172.422 237.015 172.264C236.974 172.105 236.981 171.938 237.035 171.783C237.088 171.628 237.187 171.493 237.317 171.394C237.448 171.294 237.605 171.236 237.769 171.226C237.879 171.22 237.989 171.235 238.093 171.271C238.197 171.307 238.292 171.363 238.374 171.437C238.456 171.51 238.523 171.599 238.57 171.699C238.617 171.798 238.644 171.906 238.65 172.016Z" fill="#263238"/>
<path d="M234.943 171.246L235.043 176.583L237.611 175.71L234.943 171.246Z" fill="#F28F8F"/>
<path d="M231.46 182.889C229.365 182.673 225.018 181.551 224.295 179.864C224.591 180.718 225.138 181.463 225.866 182C227.187 183.064 231.501 184.194 231.501 184.194L231.46 182.889Z" fill="#F28F8F"/>
<path d="M231.503 185.594V184.197C231.503 184.197 234.894 183.59 236.681 184.197C238.315 184.784 239.829 185.659 241.153 186.782C242.136 187.98 242.702 189.465 242.765 191.013C242.724 192.908 240.903 193.564 238.452 192.027C237.13 191.196 236.623 189.6 235.75 188.777C234.119 188.039 232.669 186.952 231.503 185.594Z" fill="#B16668"/>
<path d="M219.034 189.284C215.336 190.988 213.1 192.077 211.895 197.595C210.689 203.114 205.835 229.471 205.835 229.471L211.587 231.308C211.587 231.308 215.818 218.233 217.015 213.853C218.211 209.473 220.555 202.898 221.071 199.017C221.586 195.135 222.002 192.459 219.034 189.284Z" fill="#FFA8A7"/>
<path d="M217.672 300.739H223.939V290.017H217.672V300.739Z" fill="#B16668"/>
<path d="M234.579 291.965L240.837 292.181L241.153 280.836L234.894 280.62L234.579 291.965Z" fill="#B16668"/>
<path d="M223.929 297.93V296.816C224.586 297.107 227.545 303.366 230.246 305.834C232.391 307.788 236.173 310.472 236.064 312.326C235.94 314.728 232.524 315.792 229.573 315.093C227.271 314.553 223.979 313.157 222.4 311.453C220.821 309.749 220.314 307.513 219.483 306.399C218.651 305.286 216.765 304.039 216.316 302.742C216.075 302.036 216.366 300.482 216.707 299.177C217.047 297.872 217.363 296.642 217.779 296.758V297.498C218.745 298.262 219.946 298.67 221.178 298.653C222.201 298.678 223.929 298.686 223.929 297.93Z" fill="#263238"/>
<path d="M240.902 290.251C241.226 290.251 241.492 290.716 242.207 291.497C243.478 292.565 244.894 293.446 246.412 294.116C248.756 295.287 254.899 296.867 256.96 297.789C258.248 298.371 257.924 300.374 256.129 301.496C254.766 302.327 250.427 303.159 246.57 302.286C244.459 301.812 241.259 300.358 239.697 300.108C237.976 299.842 234.818 299.51 233.538 298.629C232.258 297.748 232.773 295.861 233.13 294.24C233.529 292.478 234.094 289.769 234.676 289.893V290.45C235.433 291.589 239.264 292.054 240.918 291.215L240.902 290.251Z" fill="#263238"/>
<path d="M186.103 240.217C187.815 248.096 193.151 252.684 202.784 256.524C210.44 259.55 217.679 262.118 217.679 262.118C216.754 266.103 216.275 270.179 216.249 274.27C216.191 280.379 217.355 293.91 217.355 293.91C217.355 293.91 221.511 295.664 224.37 293.844C224.37 293.844 225.916 283.354 227.096 275.708C228.933 263.78 230.23 257.771 229.689 255.527C229.357 254.122 224.387 250.623 220.015 247.631L233.022 253.599C232.764 256.222 232.653 258.859 232.69 261.495C232.906 269.806 234.577 286.122 234.577 286.122C234.577 286.122 239.131 288.159 241.392 286.397C241.392 286.397 246.653 247.539 245.714 244.722C244.617 241.397 241.051 240.125 223.539 232.67C219.499 230.941 213.457 228.946 213.457 228.946L186.103 240.217Z" fill="#FA6218"/>
<path opacity="0.1" d="M186.103 240.217C187.815 248.096 193.151 252.684 202.784 256.524C210.44 259.55 217.679 262.118 217.679 262.118C216.754 266.103 216.275 270.179 216.249 274.27C216.191 280.379 217.355 293.91 217.355 293.91C217.355 293.91 221.511 295.664 224.37 293.844C224.37 293.844 225.916 283.354 227.096 275.708C228.933 263.78 230.23 257.771 229.689 255.527C229.357 254.122 224.387 250.623 220.015 247.631L233.022 253.599C232.764 256.222 232.653 258.859 232.69 261.495C232.906 269.806 234.577 286.122 234.577 286.122C234.577 286.122 239.131 288.159 241.392 286.397C241.392 286.397 246.653 247.539 245.714 244.722C244.617 241.397 241.051 240.125 223.539 232.67C219.499 230.941 213.457 228.946 213.457 228.946L186.103 240.217Z" fill="black"/>
<path d="M186.661 196.937C184.794 199.978 183.783 203.467 183.735 207.035L182.58 219.27C183.137 229.186 183.66 233.2 185.381 240.299C189.828 245.136 208.521 239.534 213.458 228.978C213.458 228.978 211.081 215.147 210.623 205.705C210.299 199.006 208.047 194.26 201.63 194.119L193.402 195.249L186.661 196.937Z" fill="#F5F5F5"/>
<path d="M210.758 182.169C214.276 178.65 214.276 172.945 210.758 169.427C207.239 165.908 201.535 165.908 198.016 169.427C194.497 172.945 194.497 178.65 198.016 182.169C201.535 185.687 207.239 185.687 210.758 182.169Z" fill="#263238"/>
<path d="M189.653 181.179C189.653 181.179 191.032 187.662 191.589 188.734C191.951 189.383 192.545 189.87 193.252 190.098L193.16 185.534L189.653 181.179Z" fill="#263238"/>
<path d="M191.389 171.879C190.905 171.822 190.415 171.876 189.956 172.038C189.496 172.199 189.08 172.463 188.738 172.81C187.599 173.973 188.239 177.614 189.652 181.18L192.254 181.47L191.389 171.879Z" fill="#263238"/>
<path d="M193.035 181.474C192.511 181.782 191.771 180.785 191.123 180.111C190.475 179.438 188.38 178.515 187.333 180.726C186.286 182.937 188.255 185.946 189.909 186.461C192.76 187.359 193.193 185.531 193.193 185.531L193.409 195.812C195.902 198.555 204.264 197.898 202.685 195.538V192.413C203.954 192.615 205.241 192.682 206.525 192.612C208.619 192.288 209.941 190.634 210.572 188.365C211.595 184.716 211.985 181.774 211.121 174.609C210.165 166.754 201.031 166.671 196.093 169.78C191.156 172.888 193.035 181.474 193.035 181.474Z" fill="#B16668"/>
<path d="M193.037 182.351C192.779 182.351 191.782 180.689 191.125 180.115C190.228 179.284 191.391 171.878 191.391 171.878C191.151 171.24 191.102 170.546 191.25 169.881C191.397 169.215 191.735 168.607 192.222 168.13C193.461 166.767 195.547 166.617 199.038 166.069C200.883 165.778 203.684 165.237 205.521 164.913C207.724 164.506 209.544 164.082 211.098 165.42C211.708 165.95 212.139 166.655 212.333 167.439C212.526 168.223 212.472 169.048 212.179 169.801C211.728 170.732 210.936 171.455 209.968 171.82C209.968 171.82 209.012 172.651 205.671 173.075C202.588 173.309 199.491 173.25 196.42 172.901C195.456 172.768 195.248 173.732 194.757 176.275C194.3 178.519 193.918 182.335 193.037 182.351Z" fill="#263238"/>
<path d="M191.389 172.428L188.239 170.766C188.337 170.551 188.477 170.358 188.652 170.199C188.826 170.039 189.031 169.917 189.254 169.84C189.477 169.762 189.713 169.73 189.949 169.746C190.185 169.763 190.414 169.827 190.625 169.935C191.05 170.17 191.368 170.562 191.51 171.027C191.653 171.492 191.609 171.994 191.389 172.428Z" fill="#263238"/>
<path d="M202.678 192.417C202.678 192.417 197.999 191.47 196.361 190.605C195.401 190.103 194.613 189.324 194.1 188.37C194.347 189.324 194.782 190.22 195.38 191.004C196.577 192.534 202.678 193.664 202.678 193.664V192.417Z" fill="#9A4A4D"/>
<path d="M201.548 180.302C201.539 180.488 201.476 180.667 201.366 180.817C201.255 180.967 201.103 181.08 200.928 181.143C200.753 181.206 200.563 181.216 200.382 181.171C200.202 181.126 200.039 181.028 199.914 180.891C199.789 180.753 199.708 180.581 199.68 180.397C199.653 180.213 199.681 180.025 199.761 179.857C199.841 179.689 199.969 179.548 200.129 179.453C200.288 179.358 200.473 179.312 200.659 179.322C200.904 179.341 201.133 179.453 201.298 179.635C201.464 179.818 201.553 180.056 201.548 180.302Z" fill="#263238"/>
<path d="M200.044 176.425L198.04 177.53C197.898 177.255 197.867 176.936 197.954 176.639C198.041 176.342 198.238 176.09 198.506 175.934C198.638 175.862 198.784 175.817 198.934 175.802C199.084 175.788 199.236 175.804 199.38 175.85C199.524 175.896 199.657 175.97 199.771 176.069C199.885 176.168 199.978 176.289 200.044 176.425Z" fill="#263238"/>
<path d="M202.254 186.778L204.39 187.609C204.343 187.753 204.268 187.886 204.169 187.999C204.07 188.113 203.948 188.206 203.813 188.272C203.677 188.338 203.529 188.376 203.378 188.383C203.228 188.391 203.077 188.368 202.935 188.316C202.789 188.26 202.656 188.175 202.543 188.068C202.43 187.96 202.339 187.831 202.276 187.688C202.212 187.545 202.178 187.391 202.174 187.235C202.17 187.079 202.197 186.924 202.254 186.778Z" fill="#9A4A4D"/>
<path d="M210.149 177.247L208.32 175.843C208.406 175.719 208.516 175.615 208.643 175.535C208.771 175.456 208.913 175.403 209.061 175.38C209.209 175.356 209.361 175.363 209.506 175.4C209.652 175.437 209.788 175.502 209.908 175.593C210.152 175.786 210.314 176.064 210.359 176.372C210.404 176.68 210.328 176.993 210.149 177.247Z" fill="#263238"/>
<path d="M209.351 180.039C209.343 180.223 209.281 180.4 209.173 180.549C209.065 180.698 208.916 180.812 208.744 180.877C208.572 180.941 208.384 180.954 208.205 180.913C208.026 180.872 207.862 180.78 207.735 180.647C207.608 180.514 207.522 180.347 207.489 180.166C207.456 179.985 207.477 179.798 207.549 179.629C207.621 179.46 207.742 179.316 207.895 179.214C208.048 179.113 208.228 179.058 208.412 179.058C208.666 179.067 208.906 179.174 209.081 179.358C209.257 179.541 209.354 179.785 209.351 180.039Z" fill="#263238"/>
<path d="M204.714 179.285L204.822 184.97L208.188 184.23L204.714 179.285Z" fill="#9A4A4D"/>
<path opacity="0.15" d="M220.014 247.63L212.492 243.599C212.492 243.599 215.559 241.388 215.966 238.513C215.966 238.513 216.149 242.045 214.819 243.599L231.135 252.742L220.014 247.63Z" fill="black"/>
<path d="M195.141 299.87V265.302C195.072 264.053 194.71 262.839 194.085 261.756C193.459 260.673 192.589 259.752 191.542 259.068L154.622 237.757L151.796 216.529C151.554 215.27 151.061 214.074 150.347 213.01C149.633 211.946 148.713 211.037 147.64 210.336L144.714 208.674C142.728 207.535 141.115 208.466 141.115 210.752V268.718C141.183 269.966 141.545 271.181 142.17 272.264C142.795 273.347 143.667 274.268 144.714 274.951L191.517 301.948C193.52 303.095 195.141 302.155 195.141 299.87Z" fill="#263238"/>
<path d="M205.262 259.45V294.027C205.266 294.104 205.266 294.182 205.262 294.259C205.156 295.46 204.781 296.621 204.165 297.657C203.549 298.693 202.709 299.577 201.705 300.244L198.779 301.906C198.693 301.963 198.601 302.01 198.505 302.047C198.457 302.076 198.407 302.101 198.355 302.122H198.314C198.219 302.164 198.122 302.2 198.023 302.23C196.321 302.853 194.463 302.906 192.728 302.38C192.516 302.316 192.307 302.238 192.105 302.147C193.834 302.862 195.172 301.889 195.18 299.82V265.301C195.111 264.053 194.749 262.838 194.124 261.756C193.498 260.673 192.628 259.752 191.581 259.068L185.048 255.294L154.661 237.757L161.194 233.983C162.31 233.422 163.543 233.129 164.793 233.129C166.043 233.129 167.275 233.422 168.392 233.983L195.18 249.451L201.705 253.216C202.744 253.905 203.607 254.827 204.225 255.91C204.843 256.993 205.198 258.205 205.262 259.45Z" fill="#455A64"/>
<path d="M195.139 265.297V299.866C195.139 301.935 193.792 302.908 192.063 302.193C192.266 302.284 192.474 302.362 192.687 302.426C194.421 302.951 196.279 302.899 197.981 302.276C198.08 302.246 198.177 302.21 198.272 302.168H198.314C198.365 302.146 198.415 302.121 198.463 302.093C198.559 302.056 198.651 302.009 198.738 301.952L201.663 300.289C202.667 299.622 203.508 298.738 204.123 297.702C204.739 296.666 205.114 295.505 205.221 294.305C205.225 294.227 205.225 294.15 205.221 294.072V259.446C205.178 258.195 204.814 256.976 204.165 255.905L194.041 261.723C194.706 262.802 195.083 264.032 195.139 265.297Z" fill="#37474F"/>
<path d="M183.95 199.935C181.331 200.866 173.793 216.849 172.164 219.975C170.534 223.1 166.229 232.75 167.068 236.639C167.908 240.529 184.457 248.741 186.102 250.379C188.072 252.357 188.596 253.313 191.546 253.62C193.957 253.878 194.655 255.765 196.966 256.762C199.276 257.759 203.299 256.022 201.512 252.731C199.409 248.841 197.68 247.985 195.76 247.195C193.092 246.098 191.48 246.007 189.651 244.876C187.823 243.746 177.126 233.597 177.126 233.597L182.578 222.967C182.578 222.967 185.903 215.054 186.177 208.995C186.451 202.936 183.95 199.935 183.95 199.935Z" fill="#B16668"/>
<path d="M186.658 196.936C181.671 198.757 179.095 203.76 176.269 209.404C173.443 215.048 170.883 221.132 170.883 221.132C173.672 224.003 177.245 225.989 181.156 226.842L186.525 216.635C186.525 216.635 192.252 205.456 186.658 196.936Z" fill="#E0E0E0"/>
</svg>
